<?xml version="1.0" encoding="UTF-8" standalone="no"?>
<!DOCTYPE svg PUBLIC "-//W3C//DTD SVG 1.1//EN"
 "http://www.w3.org/Graphics/SVG/1.1/DTD/svg11.dtd">
<!-- Generated by graphviz version 2.40.1 (20161225.0304)
 -->
<!-- Title: SEM Pages: 1 -->
<svg width="523pt" height="44pt"
 viewBox="0.00 0.00 522.68 44.00" xmlns="http://www.w3.org/2000/svg" xmlns:xlink="http://www.w3.org/1999/xlink">
<g id="graph0" class="graph" transform="scale(1 1) rotate(0) translate(4 40)">
<title>SEM</title>
<polygon fill="#ffffff" stroke="transparent" points="-4,4 -4,-40 518.6828,-40 518.6828,4 -4,4"/>
<!-- Nitrogen -->
<g id="node1" class="node">
<title>Nitrogen</title>
<polygon fill="#ffffff" stroke="#000000" points="130.0342,-36 -.0114,-36 -.0114,0 130.0342,0 130.0342,-36"/>
<text text-anchor="middle" x="65.0114" y="-14.4" font-family="Helvetica,sans-Serif" font-size="12.00" fill="#000000">Soil Nitrogen Content</text>
</g>
<!-- LMA -->
<g id="node2" class="node">
<title>LMA</title>
<polygon fill="#ffffff" stroke="#000000" points="202.0114,-36 148.0114,-36 148.0114,0 202.0114,0 202.0114,-36"/>
<text text-anchor="middle" x="175.0114" y="-14.4" font-family="Helvetica,sans-Serif" font-size="12.00" fill="#000000">LMA</text>
</g>
<!-- LDMC -->
<g id="node3" class="node">
<title>LDMC</title>
<polygon fill="#ffffff" stroke="#000000" points="274.0114,-36 220.0114,-36 220.0114,0 274.0114,0 274.0114,-36"/>
<text text-anchor="middle" x="247.0114" y="-14.4" font-family="Helvetica,sans-Serif" font-size="12.00" fill="#000000">LDMC</text>
</g>
<!-- CHL -->
<g id="node4" class="node">
<title>CHL</title>
<polygon fill="#ffffff" stroke="#000000" points="413.8623,-36 292.1605,-36 292.1605,0 413.8623,0 413.8623,-36"/>
<text text-anchor="middle" x="353.0114" y="-14.4" font-family="Helvetica,sans-Serif" font-size="12.00" fill="#000000">Chlorophyll Content</text>
</g>
<!-- GrowthRate -->
<g id="node5" class="node">
<title>GrowthRate</title>
<polygon fill="#ffffff" stroke="#000000" points="514.8549,-36 431.1679,-36 431.1679,0 514.8549,0 514.8549,-36"/>
<text text-anchor="middle" x="473.0114" y="-14.4" font-family="Helvetica,sans-Serif" font-size="12.00" fill="#000000">Growth Rate</text>
</g>
</g>
</svg>

