<?xml version="1.0" encoding="UTF-8"?>
<svg xmlns="http://www.w3.org/2000/svg" xmlns:xlink="http://www.w3.org/1999/xlink" width="522pt" height="44pt" viewBox="0 0 522 44" version="1.1">
<g id="surface522">
<path style=" stroke:none;fill-rule:nonzero;fill:rgb(100%,100%,100%);fill-opacity:1;" d="M 0 43.972656 L 0 0.0273438 L 522.003906 0.0273438 L 522.003906 43.972656 Z M 0 43.972656 "/>
<path style="fill-rule:nonzero;fill:rgb(100%,100%,100%);fill-opacity:1;stroke-width:1;stroke-linecap:butt;stroke-linejoin:miter;stroke:rgb(0%,0%,0%);stroke-opacity:1;stroke-miterlimit:4;" d="M 130.033749 -35.99998 L -0.0104347 -35.99998 L -0.0104347 -0.000020008 L 130.033749 -0.000020008 Z M 130.033749 -35.99998 " transform="matrix(0.998699,0,0,0.998699,3.994796,39.976582)"/>
<path style=" stroke:none;fill-rule:nonzero;fill:rgb(0%,0%,0%);fill-opacity:1;" d="M 13.640625 22.824219 C 13.667969 23.3125 13.785156 23.707031 13.988281 24.011719 C 14.375 24.582031 15.054688 24.863281 16.03125 24.863281 C 16.46875 24.863281 16.863281 24.800781 17.222656 24.675781 C 17.917969 24.433594 18.265625 24.003906 18.265625 23.382812 C 18.265625 22.914062 18.117188 22.578125 17.828125 22.378906 C 17.53125 22.183594 17.0625 22.015625 16.433594 21.867188 L 15.269531 21.605469 C 14.507812 21.433594 13.96875 21.242188 13.652344 21.039062 C 13.109375 20.679688 12.835938 20.144531 12.835938 19.429688 C 12.835938 18.65625 13.101562 18.019531 13.636719 17.527344 C 14.171875 17.035156 14.925781 16.785156 15.910156 16.785156 C 16.808594 16.785156 17.574219 17.003906 18.203125 17.4375 C 18.835938 17.871094 19.148438 18.566406 19.148438 19.523438 L 18.054688 19.523438 C 17.996094 19.0625 17.871094 18.707031 17.679688 18.464844 C 17.324219 18.015625 16.71875 17.789062 15.871094 17.789062 C 15.183594 17.789062 14.691406 17.933594 14.390625 18.222656 C 14.089844 18.511719 13.941406 18.847656 13.941406 19.230469 C 13.941406 19.652344 14.113281 19.960938 14.464844 20.15625 C 14.695312 20.28125 15.21875 20.4375 16.03125 20.621094 L 17.234375 20.898438 C 17.816406 21.03125 18.265625 21.210938 18.582031 21.441406 C 19.128906 21.84375 19.402344 22.429688 19.402344 23.195312 C 19.402344 24.144531 19.054688 24.824219 18.363281 25.234375 C 17.667969 25.644531 16.863281 25.847656 15.949219 25.847656 C 14.878906 25.847656 14.042969 25.574219 13.4375 25.027344 C 12.832031 24.484375 12.539062 23.75 12.546875 22.824219 Z M 23.222656 24.917969 C 23.921875 24.917969 24.398438 24.652344 24.660156 24.125 C 24.917969 23.59375 25.050781 23.007812 25.050781 22.359375 C 25.050781 21.773438 24.957031 21.296875 24.769531 20.929688 C 24.472656 20.355469 23.957031 20.066406 23.230469 20.066406 C 22.585938 20.066406 22.125 20.316406 21.828125 20.804688 C 21.535156 21.296875 21.390625 21.890625 21.390625 22.585938 C 21.390625 23.253906 21.539062 23.804688 21.828125 24.25 C 22.121094 24.695312 22.582031 24.917969 23.222656 24.917969 Z M 23.261719 19.148438 C 24.070312 19.148438 24.753906 19.417969 25.3125 19.957031 C 25.867188 20.496094 26.148438 21.285156 26.148438 22.332031 C 26.148438 23.34375 25.898438 24.175781 25.410156 24.835938 C 24.917969 25.496094 24.15625 25.824219 23.121094 25.824219 C 22.261719 25.824219 21.578125 25.535156 21.070312 24.949219 C 20.5625 24.367188 20.304688 23.582031 20.304688 22.601562 C 20.304688 21.546875 20.574219 20.707031 21.109375 20.085938 C 21.644531 19.460938 22.363281 19.148438 23.261719 19.148438 Z M 27.402344 19.359375 L 28.472656 19.359375 L 28.472656 25.597656 L 27.402344 25.597656 Z M 27.402344 17 L 28.472656 17 L 28.472656 18.191406 L 27.402344 18.191406 Z M 30.09375 17 L 31.148438 17 L 31.148438 25.597656 L 30.09375 25.597656 Z M 36.195312 17 L 37.566406 17 L 41.914062 23.964844 L 41.914062 17 L 43.019531 17 L 43.019531 25.597656 L 41.710938 25.597656 L 37.308594 18.636719 L 37.308594 25.597656 L 36.195312 25.597656 Z M 44.707031 19.359375 L 45.777344 19.359375 L 45.777344 25.597656 L 44.707031 25.597656 Z M 44.707031 17 L 45.777344 17 L 45.777344 18.191406 L 44.707031 18.191406 Z M 47.582031 17.578125 L 48.648438 17.578125 L 48.648438 19.332031 L 49.648438 19.332031 L 49.648438 20.191406 L 48.648438 20.191406 L 48.648438 24.277344 C 48.648438 24.496094 48.722656 24.644531 48.871094 24.71875 C 48.953125 24.761719 49.089844 24.785156 49.28125 24.785156 C 49.332031 24.785156 49.386719 24.78125 49.445312 24.78125 C 49.5 24.777344 49.570312 24.773438 49.648438 24.765625 L 49.648438 25.597656 C 49.527344 25.632812 49.402344 25.660156 49.273438 25.675781 C 49.140625 25.691406 49 25.699219 48.847656 25.699219 C 48.355469 25.699219 48.019531 25.570312 47.847656 25.320312 C 47.671875 25.066406 47.582031 24.738281 47.582031 24.339844 L 47.582031 20.191406 L 46.730469 20.191406 L 46.730469 19.332031 L 47.582031 19.332031 Z M 50.730469 19.332031 L 51.730469 19.332031 L 51.730469 20.414062 C 51.8125 20.203125 52.011719 19.945312 52.332031 19.644531 C 52.648438 19.339844 53.019531 19.191406 53.4375 19.191406 C 53.457031 19.191406 53.492188 19.191406 53.539062 19.195312 C 53.585938 19.199219 53.664062 19.207031 53.777344 19.21875 L 53.777344 20.332031 C 53.714844 20.320312 53.65625 20.3125 53.605469 20.308594 C 53.550781 20.304688 53.492188 20.300781 53.429688 20.300781 C 52.898438 20.300781 52.492188 20.472656 52.210938 20.8125 C 51.925781 21.152344 51.785156 21.546875 51.785156 21.992188 L 51.785156 25.597656 L 50.730469 25.597656 Z M 57.183594 24.917969 C 57.882812 24.917969 58.359375 24.652344 58.617188 24.125 C 58.875 23.59375 59.007812 23.007812 59.007812 22.359375 C 59.007812 21.773438 58.914062 21.296875 58.726562 20.929688 C 58.433594 20.355469 57.917969 20.066406 57.191406 20.066406 C 56.546875 20.066406 56.082031 20.316406 55.785156 20.804688 C 55.492188 21.296875 55.351562 21.890625 55.351562 22.585938 C 55.351562 23.253906 55.496094 23.804688 55.785156 24.25 C 56.078125 24.695312 56.542969 24.917969 57.183594 24.917969 Z M 57.222656 19.148438 C 58.03125 19.148438 58.710938 19.417969 59.269531 19.957031 C 59.828125 20.496094 60.109375 21.285156 60.109375 22.332031 C 60.109375 23.34375 59.859375 24.175781 59.367188 24.835938 C 58.875 25.496094 58.117188 25.824219 57.082031 25.824219 C 56.21875 25.824219 55.535156 25.535156 55.03125 24.949219 C 54.523438 24.367188 54.265625 23.582031 54.265625 22.601562 C 54.265625 21.546875 54.535156 20.707031 55.070312 20.085938 C 55.601562 19.460938 56.320312 19.148438 57.222656 19.148438 Z M 63.570312 19.21875 C 64.0625 19.21875 64.488281 19.339844 64.855469 19.582031 C 65.054688 19.71875 65.257812 19.917969 65.464844 20.179688 L 65.464844 19.386719 L 66.4375 19.386719 L 66.4375 25.089844 C 66.4375 25.886719 66.320312 26.507812 66.085938 26.96875 C 65.648438 27.820312 64.820312 28.25 63.613281 28.25 C 62.9375 28.25 62.367188 28.097656 61.90625 27.792969 C 61.449219 27.492188 61.191406 27.015625 61.136719 26.378906 L 62.207031 26.378906 C 62.257812 26.65625 62.355469 26.871094 62.511719 27.023438 C 62.75 27.257812 63.121094 27.375 63.636719 27.375 C 64.445312 27.375 64.96875 27.089844 65.21875 26.519531 C 65.367188 26.1875 65.4375 25.589844 65.421875 24.722656 C 65.210938 25.042969 64.960938 25.285156 64.664062 25.441406 C 64.371094 25.597656 63.976562 25.675781 63.488281 25.675781 C 62.808594 25.675781 62.214844 25.433594 61.703125 24.949219 C 61.199219 24.46875 60.945312 23.667969 60.945312 22.5625 C 60.945312 21.511719 61.199219 20.6875 61.710938 20.105469 C 62.222656 19.515625 62.84375 19.21875 63.570312 19.21875 Z M 65.464844 22.4375 C 65.464844 21.660156 65.304688 21.085938 64.984375 20.710938 C 64.664062 20.339844 64.261719 20.152344 63.761719 20.152344 C 63.019531 20.152344 62.511719 20.496094 62.238281 21.1875 C 62.09375 21.558594 62.023438 22.046875 62.023438 22.648438 C 62.023438 23.355469 62.167969 23.890625 62.453125 24.257812 C 62.742188 24.628906 63.128906 24.8125 63.613281 24.8125 C 64.371094 24.8125 64.898438 24.472656 65.207031 23.785156 C 65.378906 23.402344 65.464844 22.953125 65.464844 22.4375 Z M 70.628906 19.191406 C 71.074219 19.191406 71.507812 19.292969 71.921875 19.503906 C 72.339844 19.710938 72.660156 19.980469 72.878906 20.316406 C 73.089844 20.628906 73.230469 20.996094 73.300781 21.417969 C 73.363281 21.707031 73.394531 22.167969 73.394531 22.800781 L 68.800781 22.800781 C 68.820312 23.4375 68.96875 23.945312 69.25 24.328125 C 69.53125 24.714844 69.964844 24.90625 70.554688 24.90625 C 71.105469 24.90625 71.542969 24.722656 71.871094 24.363281 C 72.058594 24.152344 72.191406 23.90625 72.269531 23.628906 L 73.304688 23.628906 C 73.277344 23.859375 73.1875 24.117188 73.035156 24.398438 C 72.878906 24.683594 72.707031 24.914062 72.515625 25.09375 C 72.195312 25.40625 71.796875 25.617188 71.328125 25.726562 C 71.074219 25.789062 70.785156 25.820312 70.46875 25.820312 C 69.6875 25.820312 69.027344 25.535156 68.480469 24.96875 C 67.9375 24.398438 67.667969 23.605469 67.667969 22.585938 C 67.667969 21.578125 67.941406 20.757812 68.488281 20.132812 C 69.035156 19.503906 69.75 19.191406 70.628906 19.191406 Z M 72.3125 21.960938 C 72.269531 21.503906 72.167969 21.140625 72.011719 20.867188 C 71.722656 20.363281 71.242188 20.109375 70.5625 20.109375 C 70.082031 20.109375 69.675781 20.285156 69.347656 20.628906 C 69.019531 20.980469 68.847656 21.421875 68.828125 21.960938 Z M 74.6875 19.332031 L 75.6875 19.332031 L 75.6875 20.222656 C 75.984375 19.855469 76.300781 19.589844 76.628906 19.429688 C 76.960938 19.269531 77.332031 19.191406 77.738281 19.191406 C 78.628906 19.191406 79.230469 19.5 79.539062 20.121094 C 79.710938 20.460938 79.796875 20.945312 79.796875 21.578125 L 79.796875 25.597656 L 78.726562 25.597656 L 78.726562 21.648438 C 78.726562 21.265625 78.667969 20.953125 78.558594 20.71875 C 78.371094 20.332031 78.027344 20.136719 77.535156 20.136719 C 77.285156 20.136719 77.082031 20.164062 76.921875 20.214844 C 76.632812 20.300781 76.382812 20.472656 76.164062 20.726562 C 75.988281 20.933594 75.875 21.148438 75.820312 21.367188 C 75.769531 21.589844 75.742188 21.90625 75.742188 22.3125 L 75.742188 25.597656 L 74.6875 25.597656 Z M 88.445312 16.765625 C 89.53125 16.765625 90.378906 17.054688 90.980469 17.625 C 91.578125 18.199219 91.914062 18.851562 91.976562 19.582031 L 90.847656 19.582031 C 90.71875 19.027344 90.460938 18.589844 90.074219 18.261719 C 89.691406 17.9375 89.152344 17.777344 88.460938 17.777344 C 87.613281 17.777344 86.925781 18.074219 86.40625 18.671875 C 85.882812 19.265625 85.625 20.179688 85.625 21.40625 C 85.625 22.414062 85.859375 23.230469 86.328125 23.855469 C 86.800781 24.480469 87.5 24.792969 88.4375 24.792969 C 89.292969 24.792969 89.945312 24.464844 90.394531 23.804688 C 90.632812 23.460938 90.808594 23.003906 90.925781 22.4375 L 92.0625 22.4375 C 91.960938 23.34375 91.625 24.097656 91.058594 24.714844 C 90.375 25.453125 89.449219 25.820312 88.296875 25.820312 C 87.296875 25.820312 86.453125 25.519531 85.773438 24.910156 C 84.882812 24.109375 84.4375 22.878906 84.4375 21.207031 C 84.4375 19.941406 84.773438 18.902344 85.445312 18.089844 C 86.167969 17.210938 87.171875 16.765625 88.445312 16.765625 Z M 95.828125 24.917969 C 96.527344 24.917969 97.003906 24.652344 97.265625 24.125 C 97.519531 23.59375 97.652344 23.007812 97.652344 22.359375 C 97.652344 21.773438 97.558594 21.296875 97.375 20.929688 C 97.078125 20.355469 96.5625 20.066406 95.835938 20.066406 C 95.191406 20.066406 94.726562 20.316406 94.433594 20.804688 C 94.140625 21.296875 93.996094 21.890625 93.996094 22.585938 C 93.996094 23.253906 94.144531 23.804688 94.433594 24.25 C 94.722656 24.695312 95.1875 24.917969 95.828125 24.917969 Z M 95.867188 19.148438 C 96.675781 19.148438 97.359375 19.417969 97.914062 19.957031 C 98.472656 20.496094 98.753906 21.285156 98.753906 22.332031 C 98.753906 23.34375 98.503906 24.175781 98.011719 24.835938 C 97.519531 25.496094 96.761719 25.824219 95.726562 25.824219 C 94.863281 25.824219 94.183594 25.535156 93.675781 24.949219 C 93.167969 24.367188 92.910156 23.582031 92.910156 22.601562 C 92.910156 21.546875 93.179688 20.707031 93.714844 20.085938 C 94.25 19.460938 94.964844 19.148438 95.867188 19.148438 Z M 100.003906 19.332031 L 101 19.332031 L 101 20.222656 C 101.296875 19.855469 101.613281 19.589844 101.945312 19.429688 C 102.277344 19.269531 102.648438 19.191406 103.054688 19.191406 C 103.941406 19.191406 104.542969 19.5 104.855469 20.121094 C 105.027344 20.460938 105.113281 20.945312 105.113281 21.578125 L 105.113281 25.597656 L 104.039062 25.597656 L 104.039062 21.648438 C 104.039062 21.265625 103.980469 20.953125 103.871094 20.71875 C 103.683594 20.332031 103.34375 20.136719 102.851562 20.136719 C 102.601562 20.136719 102.398438 20.164062 102.238281 20.214844 C 101.949219 20.300781 101.695312 20.472656 101.476562 20.726562 C 101.300781 20.933594 101.1875 21.148438 101.132812 21.367188 C 101.082031 21.589844 101.054688 21.90625 101.054688 22.3125 L 101.054688 25.597656 L 100.003906 25.597656 Z M 106.875 17.578125 L 107.941406 17.578125 L 107.941406 19.332031 L 108.945312 19.332031 L 108.945312 20.191406 L 107.941406 20.191406 L 107.941406 24.277344 C 107.941406 24.496094 108.015625 24.644531 108.164062 24.71875 C 108.246094 24.761719 108.382812 24.785156 108.574219 24.785156 C 108.625 24.785156 108.679688 24.78125 108.738281 24.78125 C 108.796875 24.777344 108.867188 24.773438 108.945312 24.765625 L 108.945312 25.597656 C 108.824219 25.632812 108.695312 25.660156 108.566406 25.675781 C 108.433594 25.691406 108.292969 25.699219 108.140625 25.699219 C 107.648438 25.699219 107.3125 25.570312 107.140625 25.320312 C 106.964844 25.066406 106.875 24.738281 106.875 24.339844 L 106.875 20.191406 L 106.027344 20.191406 L 106.027344 19.332031 L 106.875 19.332031 Z M 112.605469 19.191406 C 113.050781 19.191406 113.484375 19.292969 113.898438 19.503906 C 114.316406 19.710938 114.636719 19.980469 114.855469 20.316406 C 115.066406 20.628906 115.207031 20.996094 115.277344 21.417969 C 115.339844 21.707031 115.371094 22.167969 115.371094 22.800781 L 110.777344 22.800781 C 110.796875 23.4375 110.945312 23.945312 111.226562 24.328125 C 111.507812 24.714844 111.941406 24.90625 112.53125 24.90625 C 113.082031 24.90625 113.519531 24.722656 113.847656 24.363281 C 114.035156 24.152344 114.167969 23.90625 114.246094 23.628906 L 115.28125 23.628906 C 115.253906 23.859375 115.164062 24.117188 115.011719 24.398438 C 114.855469 24.683594 114.683594 24.914062 114.492188 25.09375 C 114.171875 25.40625 113.773438 25.617188 113.304688 25.726562 C 113.050781 25.789062 112.761719 25.820312 112.445312 25.820312 C 111.664062 25.820312 111.003906 25.535156 110.457031 24.96875 C 109.914062 24.398438 109.644531 23.605469 109.644531 22.585938 C 109.644531 21.578125 109.917969 20.757812 110.464844 20.132812 C 111.011719 19.503906 111.726562 19.191406 112.605469 19.191406 Z M 114.289062 21.960938 C 114.246094 21.503906 114.144531 21.140625 113.988281 20.867188 C 113.699219 20.363281 113.21875 20.109375 112.539062 20.109375 C 112.058594 20.109375 111.652344 20.285156 111.324219 20.628906 C 110.996094 20.980469 110.824219 21.421875 110.804688 21.960938 Z M 116.660156 19.332031 L 117.660156 19.332031 L 117.660156 20.222656 C 117.957031 19.855469 118.273438 19.589844 118.601562 19.429688 C 118.933594 19.269531 119.304688 19.191406 119.710938 19.191406 C 120.601562 19.191406 121.203125 19.5 121.511719 20.121094 C 121.683594 20.460938 121.769531 20.945312 121.769531 21.578125 L 121.769531 25.597656 L 120.699219 25.597656 L 120.699219 21.648438 C 120.699219 21.265625 120.640625 20.953125 120.53125 20.71875 C 120.34375 20.332031 120 20.136719 119.507812 20.136719 C 119.257812 20.136719 119.054688 20.164062 118.894531 20.214844 C 118.605469 20.300781 118.355469 20.472656 118.136719 20.726562 C 117.960938 20.933594 117.847656 21.148438 117.792969 21.367188 C 117.742188 21.589844 117.714844 21.90625 117.714844 22.3125 L 117.714844 25.597656 L 116.660156 25.597656 Z M 123.539062 17.578125 L 124.601562 17.578125 L 124.601562 19.332031 L 125.605469 19.332031 L 125.605469 20.191406 L 124.601562 20.191406 L 124.601562 24.277344 C 124.601562 24.496094 124.675781 24.644531 124.824219 24.71875 C 124.90625 24.761719 125.042969 24.785156 125.234375 24.785156 C 125.285156 24.785156 125.339844 24.78125 125.398438 24.78125 C 125.457031 24.777344 125.527344 24.773438 125.605469 24.765625 L 125.605469 25.597656 C 125.484375 25.632812 125.355469 25.660156 125.226562 25.675781 C 125.09375 25.691406 124.953125 25.699219 124.800781 25.699219 C 124.3125 25.699219 123.976562 25.570312 123.804688 25.320312 C 123.628906 25.066406 123.539062 24.738281 123.539062 24.339844 L 123.539062 20.191406 L 122.6875 20.191406 L 122.6875 19.332031 L 123.539062 19.332031 Z M 11.96875 16.367188 "/>
<path style="fill-rule:nonzero;fill:rgb(100%,100%,100%);fill-opacity:1;stroke-width:1;stroke-linecap:butt;stroke-linejoin:miter;stroke:rgb(0%,0%,0%);stroke-opacity:1;stroke-miterlimit:4;" d="M 202.010201 -35.99998 L 148.010261 -35.99998 L 148.010261 -0.000020008 L 202.010201 -0.000020008 Z M 202.010201 -35.99998 " transform="matrix(0.998699,0,0,0.998699,3.994796,39.976582)"/>
<path style=" stroke:none;fill-rule:nonzero;fill:rgb(0%,0%,0%);fill-opacity:1;" d="M 167.371094 17 L 168.535156 17 L 168.535156 24.574219 L 172.886719 24.574219 L 172.886719 25.597656 L 167.371094 25.597656 Z M 174.007812 17 L 175.675781 17 L 178.148438 24.269531 L 180.601562 17 L 182.246094 17 L 182.246094 25.597656 L 181.144531 25.597656 L 181.144531 20.523438 C 181.144531 20.351562 181.148438 20.058594 181.15625 19.652344 C 181.164062 19.246094 181.167969 18.808594 181.167969 18.347656 L 178.710938 25.597656 L 177.5625 25.597656 L 175.09375 18.347656 L 175.09375 18.609375 C 175.09375 18.820312 175.097656 19.140625 175.109375 19.574219 C 175.117188 20.003906 175.125 20.324219 175.125 20.523438 L 175.125 25.597656 L 174.007812 25.597656 Z M 188.429688 22.074219 L 187.125 18.277344 L 185.738281 22.074219 Z M 186.515625 17 L 187.832031 17 L 190.953125 25.597656 L 189.675781 25.597656 L 188.804688 23.023438 L 185.40625 23.023438 L 184.472656 25.597656 L 183.28125 25.597656 Z M 166.457031 16.367188 "/>
<path style="fill-rule:nonzero;fill:rgb(100%,100%,100%);fill-opacity:1;stroke-width:1;stroke-linecap:butt;stroke-linejoin:miter;stroke:rgb(0%,0%,0%);stroke-opacity:1;stroke-miterlimit:4;" d="M 274.010121 -35.99998 L 220.010181 -35.99998 L 220.010181 -0.000020008 L 274.010121 -0.000020008 Z M 274.010121 -35.99998 " transform="matrix(0.998699,0,0,0.998699,3.994796,39.976582)"/>
<path style=" stroke:none;fill-rule:nonzero;fill:rgb(0%,0%,0%);fill-opacity:1;" d="M 234.621094 17 L 235.78125 17 L 235.78125 24.574219 L 240.136719 24.574219 L 240.136719 25.597656 L 234.621094 25.597656 Z M 244.585938 24.601562 C 244.980469 24.601562 245.304688 24.558594 245.558594 24.480469 C 246.011719 24.328125 246.382812 24.035156 246.671875 23.597656 C 246.902344 23.253906 247.070312 22.8125 247.171875 22.265625 C 247.230469 21.941406 247.257812 21.640625 247.257812 21.367188 C 247.257812 20.304688 247.046875 19.472656 246.621094 18.886719 C 246.199219 18.296875 245.515625 18 244.574219 18 L 242.511719 18 L 242.511719 24.601562 Z M 241.34375 17 L 244.820312 17 C 246.003906 17 246.921875 17.421875 247.570312 18.257812 C 248.152344 19.015625 248.441406 19.988281 248.441406 21.164062 C 248.441406 22.078125 248.269531 22.90625 247.925781 23.640625 C 247.324219 24.945312 246.285156 25.597656 244.808594 25.597656 L 241.34375 25.597656 Z M 249.910156 17 L 251.578125 17 L 254.046875 24.269531 L 256.5 17 L 258.148438 17 L 258.148438 25.597656 L 257.042969 25.597656 L 257.042969 20.523438 C 257.042969 20.351562 257.046875 20.058594 257.054688 19.652344 C 257.0625 19.246094 257.066406 18.808594 257.066406 18.347656 L 254.613281 25.597656 L 253.460938 25.597656 L 250.992188 18.347656 L 250.992188 18.609375 C 250.992188 18.820312 250.996094 19.140625 251.007812 19.574219 C 251.015625 20.003906 251.023438 20.324219 251.023438 20.523438 L 251.023438 25.597656 L 249.910156 25.597656 Z M 263.542969 16.765625 C 264.632812 16.765625 265.476562 17.054688 266.078125 17.625 C 266.679688 18.199219 267.015625 18.851562 267.078125 19.582031 L 265.945312 19.582031 C 265.816406 19.027344 265.558594 18.589844 265.175781 18.261719 C 264.792969 17.9375 264.253906 17.777344 263.558594 17.777344 C 262.710938 17.777344 262.027344 18.074219 261.507812 18.671875 C 260.984375 19.265625 260.726562 20.179688 260.726562 21.40625 C 260.726562 22.414062 260.960938 23.230469 261.429688 23.855469 C 261.902344 24.480469 262.597656 24.792969 263.535156 24.792969 C 264.394531 24.792969 265.046875 24.464844 265.492188 23.804688 C 265.730469 23.460938 265.90625 23.003906 266.023438 22.4375 L 267.164062 22.4375 C 267.0625 23.34375 266.726562 24.097656 266.15625 24.714844 C 265.472656 25.453125 264.550781 25.820312 263.394531 25.820312 C 262.394531 25.820312 261.554688 25.519531 260.875 24.910156 C 259.980469 24.109375 259.535156 22.878906 259.535156 21.207031 C 259.535156 19.941406 259.871094 18.902344 260.542969 18.089844 C 261.269531 17.210938 262.273438 16.765625 263.542969 16.765625 Z M 233.707031 16.367188 "/>
<path style="fill-rule:nonzero;fill:rgb(100%,100%,100%);fill-opacity:1;stroke-width:1;stroke-linecap:butt;stroke-linejoin:miter;stroke:rgb(0%,0%,0%);stroke-opacity:1;stroke-miterlimit:4;" d="M 413.863942 -35.99998 L 292.158732 -35.99998 L 292.158732 -0.000020008 L 413.863942 -0.000020008 Z M 413.863942 -35.99998 " transform="matrix(0.998699,0,0,0.998699,3.994796,39.976582)"/>
<path style=" stroke:none;fill-rule:nonzero;fill:rgb(0%,0%,0%);fill-opacity:1;" d="M 308.457031 16.765625 C 309.546875 16.765625 310.390625 17.054688 310.992188 17.625 C 311.59375 18.199219 311.929688 18.851562 311.992188 19.582031 L 310.859375 19.582031 C 310.730469 19.027344 310.472656 18.589844 310.089844 18.261719 C 309.707031 17.9375 309.167969 17.777344 308.472656 17.777344 C 307.625 17.777344 306.941406 18.074219 306.421875 18.671875 C 305.898438 19.265625 305.640625 20.179688 305.640625 21.40625 C 305.640625 22.414062 305.875 23.230469 306.34375 23.855469 C 306.816406 24.480469 307.511719 24.792969 308.449219 24.792969 C 309.308594 24.792969 309.960938 24.464844 310.40625 23.804688 C 310.644531 23.460938 310.820312 23.003906 310.9375 22.4375 L 312.078125 22.4375 C 311.976562 23.34375 311.640625 24.097656 311.070312 24.714844 C 310.386719 25.453125 309.464844 25.820312 308.308594 25.820312 C 307.3125 25.820312 306.46875 25.519531 305.789062 24.910156 C 304.894531 24.109375 304.449219 22.878906 304.449219 21.207031 C 304.449219 19.941406 304.785156 18.902344 305.457031 18.089844 C 306.183594 17.210938 307.1875 16.765625 308.457031 16.765625 Z M 313.351562 16.972656 L 314.402344 16.972656 L 314.402344 20.179688 C 314.652344 19.863281 314.878906 19.640625 315.074219 19.511719 C 315.414062 19.289062 315.839844 19.175781 316.347656 19.175781 C 317.253906 19.175781 317.871094 19.496094 318.195312 20.132812 C 318.371094 20.480469 318.460938 20.960938 318.460938 21.578125 L 318.460938 25.597656 L 317.375 25.597656 L 317.375 21.648438 C 317.375 21.1875 317.316406 20.847656 317.199219 20.632812 C 317.007812 20.292969 316.648438 20.121094 316.125 20.121094 C 315.6875 20.121094 315.292969 20.269531 314.933594 20.570312 C 314.578125 20.871094 314.402344 21.4375 314.402344 22.273438 L 314.402344 25.597656 L 313.351562 25.597656 Z M 320.046875 17 L 321.101562 17 L 321.101562 25.597656 L 320.046875 25.597656 Z M 325.171875 24.917969 C 325.867188 24.917969 326.34375 24.652344 326.605469 24.125 C 326.863281 23.59375 326.996094 23.007812 326.996094 22.359375 C 326.996094 21.773438 326.902344 21.296875 326.714844 20.929688 C 326.417969 20.355469 325.902344 20.066406 325.179688 20.066406 C 324.535156 20.066406 324.070312 20.316406 323.773438 20.804688 C 323.480469 21.296875 323.335938 21.890625 323.335938 22.585938 C 323.335938 23.253906 323.484375 23.804688 323.773438 24.25 C 324.066406 24.695312 324.53125 24.917969 325.171875 24.917969 Z M 325.210938 19.148438 C 326.015625 19.148438 326.699219 19.417969 327.257812 19.957031 C 327.816406 20.496094 328.097656 21.285156 328.097656 22.332031 C 328.097656 23.34375 327.847656 24.175781 327.355469 24.835938 C 326.863281 25.496094 326.101562 25.824219 325.070312 25.824219 C 324.207031 25.824219 323.523438 25.535156 323.015625 24.949219 C 322.507812 24.367188 322.253906 23.582031 322.253906 22.601562 C 322.253906 21.546875 322.519531 20.707031 323.054688 20.085938 C 323.589844 19.460938 324.308594 19.148438 325.210938 19.148438 Z M 329.375 19.332031 L 330.375 19.332031 L 330.375 20.414062 C 330.457031 20.203125 330.65625 19.945312 330.976562 19.644531 C 331.296875 19.339844 331.664062 19.191406 332.082031 19.191406 C 332.101562 19.191406 332.136719 19.191406 332.183594 19.195312 C 332.230469 19.199219 332.308594 19.207031 332.421875 19.21875 L 332.421875 20.332031 C 332.359375 20.320312 332.300781 20.3125 332.25 20.308594 C 332.195312 20.304688 332.136719 20.300781 332.074219 20.300781 C 331.542969 20.300781 331.140625 20.472656 330.855469 20.8125 C 330.570312 21.152344 330.429688 21.546875 330.429688 21.992188 L 330.429688 25.597656 L 329.375 25.597656 Z M 335.824219 24.917969 C 336.523438 24.917969 337 24.652344 337.261719 24.125 C 337.515625 23.59375 337.648438 23.007812 337.648438 22.359375 C 337.648438 21.773438 337.554688 21.296875 337.367188 20.929688 C 337.074219 20.355469 336.558594 20.066406 335.832031 20.066406 C 335.1875 20.066406 334.722656 20.316406 334.425781 20.804688 C 334.136719 21.296875 333.992188 21.890625 333.992188 22.585938 C 333.992188 23.253906 334.140625 23.804688 334.425781 24.25 C 334.71875 24.695312 335.183594 24.917969 335.824219 24.917969 Z M 335.863281 19.148438 C 336.671875 19.148438 337.351562 19.417969 337.910156 19.957031 C 338.46875 20.496094 338.75 21.285156 338.75 22.332031 C 338.75 23.34375 338.5 24.175781 338.007812 24.835938 C 337.515625 25.496094 336.757812 25.824219 335.722656 25.824219 C 334.859375 25.824219 334.179688 25.535156 333.671875 24.949219 C 333.164062 24.367188 332.90625 23.582031 332.90625 22.601562 C 332.90625 21.546875 333.175781 20.707031 333.710938 20.085938 C 334.246094 19.460938 334.960938 19.148438 335.863281 19.148438 Z M 342.648438 24.886719 C 343.140625 24.886719 343.546875 24.683594 343.871094 24.269531 C 344.199219 23.859375 344.363281 23.246094 344.363281 22.425781 C 344.363281 21.925781 344.289062 21.496094 344.144531 21.136719 C 343.871094 20.449219 343.371094 20.105469 342.648438 20.105469 C 341.917969 20.105469 341.417969 20.46875 341.148438 21.195312 C 341.003906 21.585938 340.929688 22.082031 340.929688 22.683594 C 340.929688 23.167969 341.003906 23.574219 341.148438 23.917969 C 341.421875 24.566406 341.921875 24.886719 342.648438 24.886719 Z M 339.921875 19.359375 L 340.945312 19.359375 L 340.945312 20.191406 C 341.15625 19.90625 341.382812 19.683594 341.632812 19.527344 C 341.988281 19.292969 342.40625 19.175781 342.890625 19.175781 C 343.597656 19.175781 344.199219 19.449219 344.695312 19.996094 C 345.191406 20.535156 345.441406 21.3125 345.441406 22.328125 C 345.441406 23.691406 345.082031 24.667969 344.367188 25.253906 C 343.914062 25.625 343.386719 25.808594 342.789062 25.808594 C 342.316406 25.808594 341.921875 25.707031 341.601562 25.496094 C 341.414062 25.378906 341.203125 25.179688 340.972656 24.894531 L 340.972656 28.09375 L 339.921875 28.09375 Z M 346.664062 16.972656 L 347.71875 16.972656 L 347.71875 20.179688 C 347.96875 19.863281 348.195312 19.640625 348.390625 19.511719 C 348.730469 19.289062 349.15625 19.175781 349.660156 19.175781 C 350.570312 19.175781 351.1875 19.496094 351.511719 20.132812 C 351.6875 20.480469 351.777344 20.960938 351.777344 21.578125 L 351.777344 25.597656 L 350.691406 25.597656 L 350.691406 21.648438 C 350.691406 21.1875 350.632812 20.847656 350.515625 20.632812 C 350.324219 20.292969 349.964844 20.121094 349.4375 20.121094 C 349.003906 20.121094 348.609375 20.269531 348.25 20.570312 C 347.894531 20.871094 347.71875 21.4375 347.71875 22.273438 L 347.71875 25.597656 L 346.664062 25.597656 Z M 357.246094 19.332031 L 358.40625 19.332031 C 358.261719 19.734375 357.933594 20.648438 357.417969 22.078125 C 357.035156 23.15625 356.714844 24.035156 356.457031 24.714844 C 355.847656 26.316406 355.417969 27.289062 355.171875 27.640625 C 354.921875 27.992188 354.492188 28.164062 353.882812 28.164062 C 353.734375 28.164062 353.621094 28.160156 353.542969 28.148438 C 353.460938 28.136719 353.363281 28.117188 353.246094 28.085938 L 353.246094 27.125 C 353.429688 27.175781 353.5625 27.203125 353.644531 27.21875 C 353.726562 27.230469 353.796875 27.234375 353.859375 27.234375 C 354.054688 27.234375 354.199219 27.203125 354.292969 27.136719 C 354.382812 27.074219 354.460938 26.992188 354.523438 26.898438 C 354.542969 26.867188 354.613281 26.710938 354.734375 26.425781 C 354.855469 26.136719 354.945312 25.917969 355 25.777344 L 352.679688 19.332031 L 353.875 19.332031 L 355.550781 24.433594 Z M 359.351562 17 L 360.40625 17 L 360.40625 25.597656 L 359.351562 25.597656 Z M 362.015625 17 L 363.070312 17 L 363.070312 25.597656 L 362.015625 25.597656 Z M 371.738281 16.765625 C 372.828125 16.765625 373.671875 17.054688 374.273438 17.625 C 374.875 18.199219 375.210938 18.851562 375.273438 19.582031 L 374.140625 19.582031 C 374.011719 19.027344 373.753906 18.589844 373.367188 18.261719 C 372.988281 17.9375 372.449219 17.777344 371.753906 17.777344 C 370.90625 17.777344 370.222656 18.074219 369.703125 18.671875 C 369.179688 19.265625 368.921875 20.179688 368.921875 21.40625 C 368.921875 22.414062 369.15625 23.230469 369.625 23.855469 C 370.097656 24.480469 370.792969 24.792969 371.730469 24.792969 C 372.589844 24.792969 373.242188 24.464844 373.6875 23.804688 C 373.925781 23.460938 374.101562 23.003906 374.21875 22.4375 L 375.359375 22.4375 C 375.257812 23.34375 374.921875 24.097656 374.351562 24.714844 C 373.667969 25.453125 372.746094 25.820312 371.589844 25.820312 C 370.589844 25.820312 369.75 25.519531 369.070312 24.910156 C 368.175781 24.109375 367.730469 22.878906 367.730469 21.207031 C 367.730469 19.941406 368.066406 18.902344 368.738281 18.089844 C 369.464844 17.210938 370.464844 16.765625 371.738281 16.765625 Z M 379.125 24.917969 C 379.820312 24.917969 380.296875 24.652344 380.558594 24.125 C 380.816406 23.59375 380.949219 23.007812 380.949219 22.359375 C 380.949219 21.773438 380.855469 21.296875 380.667969 20.929688 C 380.371094 20.355469 379.855469 20.066406 379.132812 20.066406 C 378.488281 20.066406 378.023438 20.316406 377.726562 20.804688 C 377.433594 21.296875 377.289062 21.890625 377.289062 22.585938 C 377.289062 23.253906 377.4375 23.804688 377.726562 24.25 C 378.019531 24.695312 378.484375 24.917969 379.125 24.917969 Z M 379.164062 19.148438 C 379.96875 19.148438 380.652344 19.417969 381.210938 19.957031 C 381.769531 20.496094 382.050781 21.285156 382.050781 22.332031 C 382.050781 23.34375 381.800781 24.175781 381.308594 24.835938 C 380.816406 25.496094 380.054688 25.824219 379.023438 25.824219 C 378.160156 25.824219 377.476562 25.535156 376.96875 24.949219 C 376.460938 24.367188 376.207031 23.582031 376.207031 22.601562 C 376.207031 21.546875 376.472656 20.707031 377.007812 20.085938 C 377.542969 19.460938 378.261719 19.148438 379.164062 19.148438 Z M 383.296875 19.332031 L 384.296875 19.332031 L 384.296875 20.222656 C 384.59375 19.855469 384.910156 19.589844 385.242188 19.429688 C 385.570312 19.269531 385.941406 19.191406 386.347656 19.191406 C 387.238281 19.191406 387.839844 19.5 388.152344 20.121094 C 388.324219 20.460938 388.40625 20.945312 388.40625 21.578125 L 388.40625 25.597656 L 387.335938 25.597656 L 387.335938 21.648438 C 387.335938 21.265625 387.277344 20.953125 387.167969 20.71875 C 386.980469 20.332031 386.636719 20.136719 386.144531 20.136719 C 385.894531 20.136719 385.691406 20.164062 385.53125 20.214844 C 385.246094 20.300781 384.992188 20.472656 384.773438 20.726562 C 384.597656 20.933594 384.484375 21.148438 384.429688 21.367188 C 384.378906 21.589844 384.351562 21.90625 384.351562 22.3125 L 384.351562 25.597656 L 383.296875 25.597656 Z M 390.171875 17.578125 L 391.238281 17.578125 L 391.238281 19.332031 L 392.238281 19.332031 L 392.238281 20.191406 L 391.238281 20.191406 L 391.238281 24.277344 C 391.238281 24.496094 391.3125 24.644531 391.457031 24.71875 C 391.539062 24.761719 391.675781 24.785156 391.867188 24.785156 C 391.917969 24.785156 391.972656 24.78125 392.03125 24.78125 C 392.089844 24.777344 392.160156 24.773438 392.238281 24.765625 L 392.238281 25.597656 C 392.117188 25.632812 391.988281 25.660156 391.859375 25.675781 C 391.726562 25.691406 391.585938 25.699219 391.433594 25.699219 C 390.945312 25.699219 390.609375 25.570312 390.4375 25.320312 C 390.261719 25.066406 390.171875 24.738281 390.171875 24.339844 L 390.171875 20.191406 L 389.320312 20.191406 L 389.320312 19.332031 L 390.171875 19.332031 Z M 395.902344 19.191406 C 396.347656 19.191406 396.78125 19.292969 397.195312 19.503906 C 397.609375 19.710938 397.929688 19.980469 398.148438 20.316406 C 398.359375 20.628906 398.5 20.996094 398.570312 21.417969 C 398.632812 21.707031 398.664062 22.167969 398.664062 22.800781 L 394.074219 22.800781 C 394.09375 23.4375 394.242188 23.945312 394.519531 24.328125 C 394.800781 24.714844 395.234375 24.90625 395.828125 24.90625 C 396.378906 24.90625 396.816406 24.722656 397.144531 24.363281 C 397.328125 24.152344 397.460938 23.90625 397.539062 23.628906 L 398.574219 23.628906 C 398.546875 23.859375 398.457031 24.117188 398.304688 24.398438 C 398.148438 24.683594 397.976562 24.914062 397.785156 25.09375 C 397.464844 25.40625 397.070312 25.617188 396.601562 25.726562 C 396.347656 25.789062 396.058594 25.820312 395.738281 25.820312 C 394.957031 25.820312 394.300781 25.535156 393.753906 24.96875 C 393.210938 24.398438 392.941406 23.605469 392.941406 22.585938 C 392.941406 21.578125 393.214844 20.757812 393.761719 20.132812 C 394.308594 19.503906 395.019531 19.191406 395.902344 19.191406 Z M 397.582031 21.960938 C 397.539062 21.503906 397.4375 21.140625 397.285156 20.867188 C 396.996094 20.363281 396.515625 20.109375 395.835938 20.109375 C 395.351562 20.109375 394.945312 20.285156 394.617188 20.628906 C 394.292969 20.980469 394.121094 21.421875 394.101562 21.960938 Z M 399.957031 19.332031 L 400.953125 19.332031 L 400.953125 20.222656 C 401.25 19.855469 401.566406 19.589844 401.898438 19.429688 C 402.230469 19.269531 402.601562 19.191406 403.007812 19.191406 C 403.894531 19.191406 404.496094 19.5 404.808594 20.121094 C 404.980469 20.460938 405.066406 20.945312 405.066406 21.578125 L 405.066406 25.597656 L 403.992188 25.597656 L 403.992188 21.648438 C 403.992188 21.265625 403.933594 20.953125 403.824219 20.71875 C 403.636719 20.332031 403.296875 20.136719 402.804688 20.136719 C 402.554688 20.136719 402.351562 20.164062 402.191406 20.214844 C 401.902344 20.300781 401.648438 20.472656 401.429688 20.726562 C 401.253906 20.933594 401.140625 21.148438 401.085938 21.367188 C 401.035156 21.589844 401.007812 21.90625 401.007812 22.3125 L 401.007812 25.597656 L 399.957031 25.597656 Z M 406.832031 17.578125 L 407.898438 17.578125 L 407.898438 19.332031 L 408.902344 19.332031 L 408.902344 20.191406 L 407.898438 20.191406 L 407.898438 24.277344 C 407.898438 24.496094 407.972656 24.644531 408.121094 24.71875 C 408.203125 24.761719 408.339844 24.785156 408.53125 24.785156 C 408.582031 24.785156 408.636719 24.78125 408.695312 24.78125 C 408.753906 24.777344 408.824219 24.773438 408.902344 24.765625 L 408.902344 25.597656 C 408.78125 25.632812 408.652344 25.660156 408.523438 25.675781 C 408.390625 25.691406 408.25 25.699219 408.097656 25.699219 C 407.605469 25.699219 407.269531 25.570312 407.097656 25.320312 C 406.921875 25.066406 406.832031 24.738281 406.832031 24.339844 L 406.832031 20.191406 L 405.984375 20.191406 L 405.984375 19.332031 L 406.832031 19.332031 Z M 303.925781 16.367188 "/>
<path style="fill-rule:nonzero;fill:rgb(100%,100%,100%);fill-opacity:1;stroke-width:1;stroke-linecap:butt;stroke-linejoin:miter;stroke:rgb(0%,0%,0%);stroke-opacity:1;stroke-miterlimit:4;" d="M 514.854704 -35.99998 L 431.167704 -35.99998 L 431.167704 -0.000020008 L 514.854704 -0.000020008 Z M 514.854704 -35.99998 " transform="matrix(0.998699,0,0,0.998699,3.994796,39.976582)"/>
<path style=" stroke:none;fill-rule:nonzero;fill:rgb(0%,0%,0%);fill-opacity:1;" d="M 447.386719 16.78125 C 448.195312 16.78125 448.890625 16.9375 449.484375 17.25 C 450.339844 17.695312 450.859375 18.480469 451.054688 19.605469 L 449.898438 19.605469 C 449.757812 18.976562 449.46875 18.519531 449.023438 18.230469 C 448.582031 17.945312 448.03125 17.800781 447.359375 17.800781 C 446.5625 17.800781 445.890625 18.097656 445.347656 18.699219 C 444.804688 19.296875 444.53125 20.183594 444.53125 21.367188 C 444.53125 22.390625 444.757812 23.222656 445.207031 23.859375 C 445.652344 24.503906 446.386719 24.824219 447.402344 24.824219 C 448.179688 24.824219 448.816406 24.597656 449.328125 24.148438 C 449.835938 23.695312 450.097656 22.96875 450.109375 21.960938 L 447.417969 21.960938 L 447.417969 20.996094 L 451.195312 20.996094 L 451.195312 25.597656 L 450.445312 25.597656 L 450.164062 24.488281 C 449.769531 24.921875 449.417969 25.222656 449.113281 25.394531 C 448.601562 25.683594 447.957031 25.824219 447.167969 25.824219 C 446.148438 25.824219 445.273438 25.496094 444.539062 24.835938 C 443.738281 24.007812 443.335938 22.875 443.335938 21.429688 C 443.335938 19.992188 443.726562 18.847656 444.507812 17.996094 C 445.25 17.1875 446.207031 16.78125 447.386719 16.78125 Z M 452.886719 19.332031 L 453.886719 19.332031 L 453.886719 20.414062 C 453.96875 20.203125 454.167969 19.945312 454.484375 19.644531 C 454.804688 19.339844 455.175781 19.191406 455.59375 19.191406 C 455.613281 19.191406 455.648438 19.191406 455.695312 19.195312 C 455.742188 19.199219 455.820312 19.207031 455.933594 19.21875 L 455.933594 20.332031 C 455.871094 20.320312 455.8125 20.3125 455.761719 20.308594 C 455.707031 20.304688 455.648438 20.300781 455.585938 20.300781 C 455.054688 20.300781 454.648438 20.472656 454.363281 20.8125 C 454.082031 21.152344 453.941406 21.546875 453.941406 21.992188 L 453.941406 25.597656 L 452.886719 25.597656 Z M 459.332031 24.917969 C 460.03125 24.917969 460.503906 24.652344 460.765625 24.125 C 461.023438 23.59375 461.15625 23.007812 461.15625 22.359375 C 461.15625 21.773438 461.0625 21.296875 460.875 20.929688 C 460.578125 20.355469 460.066406 20.066406 459.339844 20.066406 C 458.695312 20.066406 458.230469 20.316406 457.933594 20.804688 C 457.640625 21.296875 457.496094 21.890625 457.496094 22.585938 C 457.496094 23.253906 457.644531 23.804688 457.933594 24.25 C 458.226562 24.695312 458.691406 24.917969 459.332031 24.917969 Z M 459.371094 19.148438 C 460.179688 19.148438 460.859375 19.417969 461.417969 19.957031 C 461.976562 20.496094 462.257812 21.285156 462.257812 22.332031 C 462.257812 23.34375 462.007812 24.175781 461.515625 24.835938 C 461.023438 25.496094 460.265625 25.824219 459.230469 25.824219 C 458.367188 25.824219 457.683594 25.535156 457.179688 24.949219 C 456.671875 24.367188 456.414062 23.582031 456.414062 22.601562 C 456.414062 21.546875 456.683594 20.707031 457.21875 20.085938 C 457.75 19.460938 458.46875 19.148438 459.371094 19.148438 Z M 463.992188 19.332031 L 465.203125 24.269531 L 466.421875 19.332031 L 467.605469 19.332031 L 468.835938 24.238281 L 470.117188 19.332031 L 471.171875 19.332031 L 469.347656 25.597656 L 468.253906 25.597656 L 466.980469 20.742188 L 465.746094 25.597656 L 464.648438 25.597656 L 462.84375 19.332031 Z M 472.375 17.578125 L 473.441406 17.578125 L 473.441406 19.332031 L 474.445312 19.332031 L 474.445312 20.191406 L 473.441406 20.191406 L 473.441406 24.277344 C 473.441406 24.496094 473.515625 24.644531 473.664062 24.71875 C 473.746094 24.761719 473.882812 24.785156 474.074219 24.785156 C 474.125 24.785156 474.179688 24.78125 474.238281 24.78125 C 474.296875 24.777344 474.367188 24.773438 474.445312 24.765625 L 474.445312 25.597656 C 474.324219 25.632812 474.195312 25.660156 474.066406 25.675781 C 473.933594 25.691406 473.792969 25.699219 473.640625 25.699219 C 473.148438 25.699219 472.8125 25.570312 472.640625 25.320312 C 472.464844 25.066406 472.375 24.738281 472.375 24.339844 L 472.375 20.191406 L 471.527344 20.191406 L 471.527344 19.332031 L 472.375 19.332031 Z M 475.492188 16.972656 L 476.546875 16.972656 L 476.546875 20.179688 C 476.796875 19.863281 477.023438 19.640625 477.21875 19.511719 C 477.558594 19.289062 477.984375 19.175781 478.488281 19.175781 C 479.398438 19.175781 480.015625 19.496094 480.339844 20.132812 C 480.515625 20.480469 480.605469 20.960938 480.605469 21.578125 L 480.605469 25.597656 L 479.519531 25.597656 L 479.519531 21.648438 C 479.519531 21.1875 479.460938 20.847656 479.34375 20.632812 C 479.152344 20.292969 478.792969 20.121094 478.269531 20.121094 C 477.832031 20.121094 477.4375 20.269531 477.078125 20.570312 C 476.722656 20.871094 476.546875 21.4375 476.546875 22.273438 L 476.546875 25.597656 L 475.492188 25.597656 Z M 489.625 20.9375 C 490.171875 20.9375 490.601562 20.828125 490.921875 20.609375 C 491.238281 20.394531 491.398438 20 491.398438 19.429688 C 491.398438 18.816406 491.175781 18.398438 490.730469 18.175781 C 490.492188 18.058594 490.179688 18 489.78125 18 L 486.933594 18 L 486.933594 20.9375 Z M 485.769531 17 L 489.75 17 C 490.402344 17 490.941406 17.097656 491.371094 17.289062 C 492.179688 17.652344 492.582031 18.332031 492.582031 19.316406 C 492.582031 19.832031 492.476562 20.253906 492.261719 20.578125 C 492.050781 20.90625 491.753906 21.171875 491.371094 21.371094 C 491.707031 21.507812 491.957031 21.6875 492.128906 21.910156 C 492.296875 22.132812 492.394531 22.492188 492.410156 22.992188 L 492.453125 24.144531 C 492.464844 24.472656 492.492188 24.714844 492.535156 24.878906 C 492.605469 25.152344 492.730469 25.324219 492.910156 25.402344 L 492.910156 25.597656 L 491.480469 25.597656 C 491.441406 25.523438 491.410156 25.425781 491.386719 25.308594 C 491.363281 25.191406 491.34375 24.964844 491.328125 24.628906 L 491.257812 23.199219 C 491.230469 22.636719 491.019531 22.257812 490.628906 22.070312 C 490.40625 21.964844 490.0625 21.910156 489.585938 21.910156 L 486.933594 21.910156 L 486.933594 25.597656 L 485.769531 25.597656 Z M 494.953125 23.925781 C 494.953125 24.230469 495.066406 24.472656 495.285156 24.648438 C 495.507812 24.824219 495.773438 24.910156 496.078125 24.910156 C 496.445312 24.910156 496.804688 24.824219 497.152344 24.652344 C 497.738281 24.367188 498.03125 23.902344 498.03125 23.257812 L 498.03125 22.40625 C 497.902344 22.488281 497.734375 22.558594 497.53125 22.613281 C 497.328125 22.667969 497.132812 22.707031 496.9375 22.730469 L 496.296875 22.8125 C 495.917969 22.863281 495.628906 22.945312 495.441406 23.054688 C 495.117188 23.238281 494.953125 23.527344 494.953125 23.925781 Z M 497.503906 21.796875 C 497.746094 21.765625 497.90625 21.664062 497.992188 21.492188 C 498.039062 21.398438 498.0625 21.265625 498.0625 21.089844 C 498.0625 20.730469 497.933594 20.472656 497.675781 20.3125 C 497.421875 20.148438 497.054688 20.066406 496.578125 20.066406 C 496.03125 20.066406 495.640625 20.214844 495.410156 20.507812 C 495.28125 20.671875 495.199219 20.917969 495.160156 21.242188 L 494.175781 21.242188 C 494.195312 20.472656 494.445312 19.933594 494.925781 19.632812 C 495.410156 19.328125 495.96875 19.175781 496.601562 19.175781 C 497.339844 19.175781 497.9375 19.316406 498.398438 19.597656 C 498.855469 19.878906 499.085938 20.316406 499.085938 20.90625 L 499.085938 24.519531 C 499.085938 24.628906 499.109375 24.714844 499.152344 24.785156 C 499.199219 24.851562 499.289062 24.882812 499.433594 24.882812 C 499.480469 24.882812 499.535156 24.878906 499.589844 24.875 C 499.648438 24.867188 499.714844 24.859375 499.777344 24.847656 L 499.777344 25.628906 C 499.613281 25.675781 499.488281 25.703125 499.402344 25.714844 C 499.316406 25.726562 499.203125 25.730469 499.054688 25.730469 C 498.691406 25.730469 498.429688 25.605469 498.265625 25.347656 C 498.179688 25.210938 498.117188 25.015625 498.085938 24.765625 C 497.871094 25.046875 497.5625 25.292969 497.15625 25.496094 C 496.753906 25.703125 496.3125 25.808594 495.832031 25.808594 C 495.25 25.808594 494.773438 25.632812 494.40625 25.277344 C 494.035156 24.925781 493.851562 24.480469 493.851562 23.949219 C 493.851562 23.371094 494.035156 22.921875 494.394531 22.601562 C 494.757812 22.28125 495.238281 22.085938 495.824219 22.007812 Z M 501.019531 17.578125 L 502.085938 17.578125 L 502.085938 19.332031 L 503.085938 19.332031 L 503.085938 20.191406 L 502.085938 20.191406 L 502.085938 24.277344 C 502.085938 24.496094 502.160156 24.644531 502.304688 24.71875 C 502.386719 24.761719 502.523438 24.785156 502.714844 24.785156 C 502.765625 24.785156 502.820312 24.78125 502.878906 24.78125 C 502.9375 24.777344 503.007812 24.773438 503.085938 24.765625 L 503.085938 25.597656 C 502.964844 25.632812 502.835938 25.660156 502.707031 25.675781 C 502.574219 25.691406 502.433594 25.699219 502.28125 25.699219 C 501.792969 25.699219 501.457031 25.570312 501.285156 25.320312 C 501.109375 25.066406 501.019531 24.738281 501.019531 24.339844 L 501.019531 20.191406 L 500.167969 20.191406 L 500.167969 19.332031 L 501.019531 19.332031 Z M 506.75 19.191406 C 507.195312 19.191406 507.628906 19.292969 508.042969 19.503906 C 508.457031 19.710938 508.777344 19.980469 508.996094 20.316406 C 509.207031 20.628906 509.347656 20.996094 509.417969 21.417969 C 509.480469 21.707031 509.511719 22.167969 509.511719 22.800781 L 504.921875 22.800781 C 504.941406 23.4375 505.089844 23.945312 505.367188 24.328125 C 505.648438 24.714844 506.082031 24.90625 506.675781 24.90625 C 507.226562 24.90625 507.664062 24.722656 507.992188 24.363281 C 508.179688 24.152344 508.308594 23.90625 508.386719 23.628906 L 509.421875 23.628906 C 509.394531 23.859375 509.304688 24.117188 509.152344 24.398438 C 508.996094 24.683594 508.824219 24.914062 508.632812 25.09375 C 508.3125 25.40625 507.917969 25.617188 507.449219 25.726562 C 507.195312 25.789062 506.90625 25.820312 506.585938 25.820312 C 505.804688 25.820312 505.148438 25.535156 504.601562 24.96875 C 504.058594 24.398438 503.789062 23.605469 503.789062 22.585938 C 503.789062 21.578125 504.0625 20.757812 504.609375 20.132812 C 505.15625 19.503906 505.867188 19.191406 506.75 19.191406 Z M 508.429688 21.960938 C 508.386719 21.503906 508.285156 21.140625 508.132812 20.867188 C 507.84375 20.363281 507.363281 20.109375 506.683594 20.109375 C 506.199219 20.109375 505.792969 20.285156 505.464844 20.628906 C 505.140625 20.980469 504.96875 21.421875 504.949219 21.960938 Z M 442.757812 16.367188 "/>
</g>
</svg>
