<?xml version="1.0" encoding="UTF-8" standalone="no"?>
<svg
   width="258pt"
   height="260pt"
   viewBox="0 0 258 260"
   version="1.1"
   id="svg28"
   sodipodi:docname="SEM_Diagram.svg"
   inkscape:version="1.3.2 (091e20e, 2023-11-25)"
   inkscape:export-filename="SEM_Diagram.png"
   inkscape:export-xdpi="96"
   inkscape:export-ydpi="96"
   xmlns:inkscape="http://www.inkscape.org/namespaces/inkscape"
   xmlns:sodipodi="http://sodipodi.sourceforge.net/DTD/sodipodi-0.dtd"
   xmlns="http://www.w3.org/2000/svg"
   xmlns:svg="http://www.w3.org/2000/svg">
  <defs
     id="defs28" />
  <sodipodi:namedview
     id="namedview28"
     pagecolor="#ffffff"
     bordercolor="#000000"
     borderopacity="0.25"
     inkscape:showpageshadow="2"
     inkscape:pageopacity="0.0"
     inkscape:pagecheckerboard="0"
     inkscape:deskcolor="#d1d1d1"
     inkscape:document-units="pt"
     inkscape:zoom="0.91720634"
     inkscape:cx="206.0605"
     inkscape:cy="173.35249"
     inkscape:window-width="1312"
     inkscape:window-height="559"
     inkscape:window-x="292"
     inkscape:window-y="203"
     inkscape:window-maximized="0"
     inkscape:current-layer="svg28" />
  <path
     style="fill:#ffffff;fill-opacity:1;fill-rule:nonzero;stroke:none"
     d="M 0,259.94922 V 0.0507812 H 258 V 259.94922 Z m 0,0"
     id="path1" />
  <path
     style="fill:#ffffff;fill-opacity:1;fill-rule:nonzero;stroke:#000000;stroke-width:0.999613;stroke-linecap:butt;stroke-linejoin:miter;stroke-miterlimit:4;stroke-opacity:1"
     d="M 194.9454,4.0467548 H 64.953153 V 40.035052 H 194.9454 Z m 0,0"
     id="path2" />
  <path
     style="fill:#000000;fill-opacity:1;fill-rule:nonzero;stroke:none"
     d="m 74.621094,22.867188 c 0.02734,0.488281 0.144531,0.886718 0.347656,1.191406 0.386719,0.566406 1.0625,0.847656 2.039062,0.847656 0.4375,0 0.835938,-0.0625 1.195313,-0.1875 0.695313,-0.242188 1.042969,-0.667969 1.042969,-1.292969 0,-0.46875 -0.148438,-0.804687 -0.4375,-1.003906 -0.296875,-0.195313 -0.765625,-0.363281 -1.398438,-0.511719 L 76.246094,21.648438 C 75.488281,21.476562 74.949219,21.285156 74.632812,21.082031 74.085938,20.722656 73.8125,20.183594 73.8125,19.46875 c 0,-0.773438 0.265625,-1.410156 0.804688,-1.902344 0.535156,-0.496094 1.285156,-0.746094 2.269531,-0.746094 0.902343,0 1.667969,0.21875 2.296875,0.652344 0.632812,0.4375 0.945312,1.132813 0.945312,2.089844 h -1.09375 c -0.05859,-0.460938 -0.183594,-0.816406 -0.375,-1.058594 -0.355468,-0.449218 -0.960937,-0.675781 -1.8125,-0.675781 -0.6875,0 -1.179687,0.144531 -1.476562,0.433594 -0.300782,0.289062 -0.449219,0.625 -0.449219,1.007812 0,0.421875 0.171875,0.730469 0.523437,0.925781 0.226563,0.125 0.75,0.28125 1.5625,0.46875 l 1.207032,0.277344 c 0.582031,0.132813 1.03125,0.3125 1.347656,0.542969 0.546875,0.402344 0.820312,0.988281 0.820312,1.753906 0,0.949219 -0.347656,1.628907 -1.039062,2.039063 -0.695312,0.410156 -1.5,0.613281 -2.417969,0.613281 -1.070312,0 -1.902343,-0.273437 -2.511719,-0.820313 -0.605468,-0.542968 -0.898437,-1.273437 -0.890624,-2.203124 z m 9.589844,2.09375 c 0.699218,0 1.175781,-0.265626 1.4375,-0.789063 0.253906,-0.53125 0.386718,-1.121094 0.386718,-1.769531 0,-0.585938 -0.09375,-1.0625 -0.28125,-1.429688 -0.292968,-0.578125 -0.808594,-0.867187 -1.535156,-0.867187 -0.644531,0 -1.109375,0.25 -1.40625,0.742187 -0.292969,0.492188 -0.4375,1.085938 -0.4375,1.78125 0,0.667969 0.148438,1.222656 0.4375,1.664063 0.292969,0.445312 0.757812,0.667969 1.398438,0.667969 z M 84.25,19.1875 c 0.808594,0 1.488281,0.269531 2.046875,0.808594 0.558594,0.539062 0.839844,1.332031 0.839844,2.378906 0,1.011719 -0.25,1.84375 -0.742188,2.503906 -0.492187,0.660156 -1.25,0.988282 -2.285156,0.988282 -0.863281,0 -1.546875,-0.289063 -2.054687,-0.875 -0.507813,-0.582032 -0.765626,-1.363282 -0.765626,-2.347657 0,-1.054687 0.269532,-1.894531 0.804688,-2.519531 0.535156,-0.625 1.253906,-0.9375 2.15625,-0.9375 z m 4.136719,0.210938 h 1.070312 v 6.242187 h -1.070312 z m 0,-2.363282 h 1.070312 v 1.195313 h -1.070312 z m 2.699219,0 h 1.054687 v 8.605469 h -1.054687 z m 6.105468,0 h 1.375 l 4.351564,6.976563 v -6.976563 h 1.10547 v 8.605469 h -1.3086 l -4.410152,-6.964844 v 6.964844 h -1.113282 z m 8.527344,2.363282 h 1.06641 v 6.242187 h -1.06641 z m 0,-2.363282 h 1.06641 v 1.195313 h -1.06641 z m 2.87109,0.582032 h 1.06641 v 1.753906 h 1.00391 v 0.859375 h -1.00391 v 4.089843 c 0,0.21875 0.0742,0.367188 0.22266,0.441407 0.082,0.04297 0.21875,0.06641 0.41015,0.06641 0.0508,0 0.10547,-0.0039 0.16407,-0.0039 0.0586,-0.0039 0.1289,-0.0078 0.20703,-0.01563 v 0.832031 c -0.1211,0.03516 -0.25,0.0625 -0.37891,0.07813 -0.13281,0.01563 -0.27344,0.02344 -0.42578,0.02344 -0.49219,0 -0.82813,-0.128907 -1,-0.378907 -0.17578,-0.253906 -0.26563,-0.582031 -0.26563,-0.980469 v -4.152343 h -0.85156 v -0.859375 h 0.85156 z m 3.15625,1.753906 h 1 v 1.082031 c 0.082,-0.210937 0.28125,-0.46875 0.60157,-0.769531 0.32031,-0.304688 0.6914,-0.453125 1.10937,-0.453125 0.0195,0 0.0547,0 0.10156,0.0039 0.0469,0.0039 0.125,0.01172 0.23829,0.02344 v 1.113282 c -0.0625,-0.01172 -0.1211,-0.01953 -0.17188,-0.02344 -0.0547,-0.0039 -0.11328,-0.0078 -0.17578,-0.0078 -0.53125,0 -0.9375,0.171875 -1.22266,0.515625 -0.28515,0.339843 -0.42578,0.734375 -0.42578,1.179687 v 3.605469 h -1.05469 z m 6.44922,5.589844 c 0.69922,0 1.17578,-0.265626 1.4375,-0.789063 0.25782,-0.53125 0.39063,-1.121094 0.39063,-1.769531 0,-0.585938 -0.0937,-1.0625 -0.28125,-1.429688 -0.29688,-0.578125 -0.8125,-0.867187 -1.53906,-0.867187 -0.64454,0 -1.10938,0.25 -1.40625,0.742187 -0.29297,0.492188 -0.4375,1.085938 -0.4375,1.78125 0,0.667969 0.14843,1.222656 0.4375,1.664063 0.29296,0.445312 0.75781,0.667969 1.39843,0.667969 z m 0.0391,-5.773438 c 0.80859,0 1.49218,0.269531 2.05078,0.808594 0.55859,0.539062 0.83984,1.332031 0.83984,2.378906 0,1.011719 -0.25,1.84375 -0.74219,2.503906 -0.49218,0.660156 -1.2539,0.988282 -2.28906,0.988282 -0.86328,0 -1.54687,-0.289063 -2.05469,-0.875 -0.5039,-0.582032 -0.76172,-1.363282 -0.76172,-2.347657 0,-1.054687 0.26954,-1.894531 0.80079,-2.519531 0.53515,-0.625 1.2539,-0.9375 2.15625,-0.9375 z m 6.35937,0.07031 c 0.49219,0 0.92188,0.121094 1.28906,0.363282 0.19532,0.136718 0.39844,0.335937 0.60547,0.597656 v -0.792969 h 0.97266 v 5.707031 c 0,0.796876 -0.11719,1.421876 -0.35156,1.882813 -0.4375,0.851563 -1.26172,1.28125 -2.47266,1.28125 -0.67578,0 -1.24609,-0.152344 -1.70703,-0.457031 -0.46094,-0.300782 -0.71875,-0.777344 -0.77344,-1.417969 h 1.07422 c 0.0508,0.28125 0.14844,0.496094 0.30469,0.648437 0.23828,0.234376 0.60937,0.351563 1.125,0.351563 0.80859,0 1.33203,-0.285156 1.58203,-0.855469 0.14844,-0.335937 0.21875,-0.933594 0.20312,-1.800781 -0.21093,0.320313 -0.46093,0.5625 -0.7539,0.71875 -0.29688,0.15625 -0.69141,0.234375 -1.17969,0.234375 -0.67969,0 -1.27344,-0.242188 -1.78516,-0.726562 -0.50781,-0.480469 -0.76172,-1.277344 -0.76172,-2.386719 0,-1.050781 0.25391,-1.875 0.76954,-2.460938 0.51171,-0.589843 1.13281,-0.886719 1.85937,-0.886719 z m 1.89453,3.222657 c 0,-0.777344 -0.16015,-1.351563 -0.48047,-1.726563 -0.3164,-0.375 -0.72265,-0.5625 -1.22265,-0.5625 -0.74219,0 -1.25,0.34375 -1.52344,1.039063 -0.14453,0.371093 -0.21484,0.859375 -0.21484,1.460937 0,0.707032 0.14453,1.246094 0.42968,1.609375 0.28907,0.371094 0.67578,0.554688 1.16016,0.554688 0.75781,0 1.28906,-0.339844 1.59375,-1.023438 0.17187,-0.386719 0.25781,-0.835937 0.25781,-1.351562 z m 5.17578,-3.25 c 0.44531,0 0.87891,0.101562 1.29297,0.3125 0.41797,0.207031 0.73828,0.476562 0.95703,0.8125 0.21094,0.316406 0.35156,0.683593 0.42188,1.105469 0.0625,0.289062 0.0937,0.75 0.0937,1.382812 h -4.59766 c 0.0195,0.636719 0.16797,1.148438 0.44922,1.527344 0.28125,0.386718 0.71484,0.578125 1.30859,0.578125 0.55078,0 0.98828,-0.183594 1.31641,-0.542969 0.1875,-0.210938 0.32031,-0.453125 0.39844,-0.730469 h 1.03515 c -0.0273,0.230469 -0.11718,0.488281 -0.26953,0.765625 -0.15625,0.285156 -0.32812,0.515625 -0.51953,0.695313 -0.32031,0.3125 -0.71875,0.523437 -1.1875,0.632812 -0.25391,0.0625 -0.54297,0.09375 -0.86328,0.09375 -0.78125,0 -1.44141,-0.285156 -1.98828,-0.851562 -0.54297,-0.570313 -0.8125,-1.359375 -0.8125,-2.382813 0,-1.007812 0.27344,-1.828125 0.82031,-2.457031 0.54688,-0.628906 1.26172,-0.941406 2.14453,-0.941406 z m 1.6836,2.773437 c -0.043,-0.457031 -0.14454,-0.820312 -0.30079,-1.09375 -0.28906,-0.507812 -0.76953,-0.761718 -1.44921,-0.761718 -0.48438,0 -0.89063,0.175781 -1.21875,0.523437 -0.32813,0.351563 -0.5,0.792969 -0.51954,1.332031 z m 2.375,-2.632812 h 0.99609 v 0.890625 c 0.29687,-0.367188 0.61328,-0.632813 0.94531,-0.792969 0.33203,-0.160156 0.70313,-0.238281 1.10938,-0.238281 0.89062,0 1.49218,0.308593 1.80468,0.929687 0.17188,0.339844 0.25782,0.828125 0.25782,1.460938 v 4.019531 h -1.07422 v -3.949219 c 0,-0.382812 -0.0586,-0.695312 -0.16797,-0.929687 -0.1875,-0.390625 -0.53125,-0.585938 -1.02344,-0.585938 -0.25,0 -0.45312,0.02734 -0.61328,0.07813 -0.28906,0.08594 -0.54297,0.257813 -0.76172,0.515625 -0.17578,0.207031 -0.28906,0.421875 -0.34375,0.640625 -0.0508,0.222656 -0.0781,0.539063 -0.0781,0.945313 v 3.285156 h -1.05078 z m 13.76562,-2.570313 c 1.08984,0 1.9375,0.289063 2.53906,0.863281 0.60157,0.574219 0.9375,1.226563 1,1.957032 h -1.13281 c -0.12891,-0.554688 -0.38672,-0.992188 -0.77344,-1.320313 -0.38281,-0.324219 -0.92187,-0.484375 -1.61718,-0.484375 -0.84766,0 -1.53516,0.296875 -2.05469,0.894532 -0.52344,0.59375 -0.78125,1.507812 -0.78125,2.738281 0,1.007812 0.23437,1.824219 0.70312,2.453125 0.47266,0.621094 1.17188,0.933594 2.10938,0.933594 0.85937,0 1.51172,-0.328126 1.96094,-0.984376 0.23828,-0.347656 0.41406,-0.804687 0.53125,-1.371093 h 1.14062 c -0.10156,0.90625 -0.4375,1.664062 -1.00781,2.277343 -0.6836,0.738282 -1.60938,1.105469 -2.76563,1.105469 -1,0 -1.84375,-0.300781 -2.52343,-0.910156 -0.89063,-0.796875 -1.33594,-2.03125 -1.33594,-3.703125 0,-1.269531 0.33594,-2.308594 1.0039,-3.121094 0.72657,-0.882812 1.73047,-1.328125 3.00391,-1.328125 z m 7.38672,8.160157 c 0.69922,0 1.17578,-0.265626 1.4375,-0.789063 0.25781,-0.53125 0.39062,-1.121094 0.39062,-1.769531 0,-0.585938 -0.0937,-1.0625 -0.28125,-1.429688 -0.29687,-0.578125 -0.8125,-0.867187 -1.53906,-0.867187 -0.64453,0 -1.10547,0.25 -1.40234,0.742187 -0.29297,0.492188 -0.4375,1.085938 -0.4375,1.78125 0,0.667969 0.14844,1.222656 0.4375,1.664063 0.29297,0.445312 0.7539,0.667969 1.39453,0.667969 z m 0.0391,-5.773438 c 0.8086,0 1.49219,0.269531 2.05078,0.808594 0.5586,0.539062 0.83985,1.332031 0.83985,2.378906 0,1.011719 -0.25,1.84375 -0.74219,2.503906 -0.49219,0.660156 -1.25391,0.988282 -2.28906,0.988282 -0.85938,0 -1.54297,-0.289063 -2.05078,-0.875 -0.50782,-0.582032 -0.76563,-1.363282 -0.76563,-2.347657 0,-1.054687 0.26953,-1.894531 0.80469,-2.519531 0.53515,-0.625 1.2539,-0.9375 2.15234,-0.9375 z m 4.14453,0.183594 h 1 v 0.890625 c 0.29688,-0.367188 0.61328,-0.632813 0.94532,-0.792969 0.33203,-0.160156 0.70312,-0.238281 1.10937,-0.238281 0.89063,0 1.49219,0.308593 1.80469,0.929687 0.17187,0.339844 0.25781,0.828125 0.25781,1.460938 v 4.019531 h -1.07422 v -3.949219 c 0,-0.382812 -0.0586,-0.695312 -0.16797,-0.929687 -0.1875,-0.390625 -0.53125,-0.585938 -1.02343,-0.585938 -0.25,0 -0.45313,0.02734 -0.61329,0.07813 -0.28906,0.08594 -0.54296,0.257813 -0.76171,0.515625 -0.17579,0.207031 -0.28907,0.421875 -0.34375,0.640625 -0.0508,0.222656 -0.0781,0.539063 -0.0781,0.945313 v 3.285156 h -1.05469 z m 6.88282,-1.753906 h 1.0664 v 1.753906 h 1.00391 v 0.859375 h -1.00391 v 4.089843 c 0,0.21875 0.0742,0.367188 0.22266,0.441407 0.082,0.04297 0.21875,0.06641 0.41015,0.06641 0.0508,0 0.10547,-0.0039 0.16407,-0.0039 0.0586,-0.0039 0.1289,-0.0078 0.20703,-0.01563 v 0.832031 c -0.1211,0.03516 -0.25,0.0625 -0.37891,0.07813 -0.13281,0.01563 -0.27344,0.02344 -0.42578,0.02344 -0.49219,0 -0.82812,-0.128907 -1,-0.378907 -0.17578,-0.253906 -0.26562,-0.582031 -0.26562,-0.980469 v -4.152343 h -0.85157 v -0.859375 h 0.85157 z m 5.73437,1.613281 c 0.44531,0 0.87891,0.101562 1.29297,0.3125 0.41797,0.207031 0.73828,0.476562 0.95703,0.8125 0.21094,0.316406 0.35156,0.683593 0.42188,1.105469 0.0586,0.289062 0.0898,0.75 0.0898,1.382812 h -4.59375 c 0.0195,0.636719 0.16797,1.148438 0.44922,1.527344 0.28125,0.386718 0.71484,0.578125 1.30859,0.578125 0.55078,0 0.98828,-0.183594 1.31641,-0.542969 0.1875,-0.210938 0.32031,-0.453125 0.39844,-0.730469 h 1.03515 c -0.0273,0.230469 -0.11719,0.488281 -0.26953,0.765625 -0.15625,0.285156 -0.32812,0.515625 -0.51953,0.695313 -0.32031,0.3125 -0.71875,0.523437 -1.1875,0.632812 -0.25391,0.0625 -0.54297,0.09375 -0.86328,0.09375 -0.78125,0 -1.44141,-0.285156 -1.98828,-0.851562 -0.54297,-0.570313 -0.8125,-1.359375 -0.8125,-2.382813 0,-1.007812 0.27343,-1.828125 0.82031,-2.457031 0.54687,-0.628906 1.26172,-0.941406 2.14453,-0.941406 z m 1.68359,2.773437 c -0.043,-0.457031 -0.14453,-0.820312 -0.30078,-1.09375 -0.28906,-0.507812 -0.76953,-0.761718 -1.44922,-0.761718 -0.48437,0 -0.89062,0.175781 -1.21875,0.523437 -0.32812,0.351563 -0.5,0.792969 -0.51953,1.332031 z m 2.375,-2.632812 h 1 v 0.890625 c 0.29688,-0.367188 0.61329,-0.632813 0.94532,-0.792969 0.33203,-0.160156 0.70312,-0.238281 1.10937,-0.238281 0.89063,0 1.49219,0.308593 1.80469,0.929687 0.17187,0.339844 0.25781,0.828125 0.25781,1.460938 v 4.019531 h -1.07422 v -3.949219 c 0,-0.382812 -0.0586,-0.695312 -0.16797,-0.929687 -0.1875,-0.390625 -0.53125,-0.585938 -1.02343,-0.585938 -0.25,0 -0.45313,0.02734 -0.61328,0.07813 -0.28907,0.08594 -0.54297,0.257813 -0.76172,0.515625 -0.17578,0.207031 -0.28907,0.421875 -0.34375,0.640625 -0.0508,0.222656 -0.0781,0.539063 -0.0781,0.945313 v 3.285156 h -1.05469 z m 6.88282,-1.753906 h 1.0664 v 1.753906 h 1 v 0.859375 h -1 v 4.089843 c 0,0.21875 0.0742,0.367188 0.22266,0.441407 0.082,0.04297 0.21875,0.06641 0.41016,0.06641 0.0508,0 0.10546,-0.0039 0.16015,-0.0039 0.0586,-0.0039 0.12891,-0.0078 0.20703,-0.01563 v 0.832031 c -0.12109,0.03516 -0.25,0.0625 -0.375,0.07813 -0.13281,0.01563 -0.27343,0.02344 -0.42578,0.02344 -0.49219,0 -0.82812,-0.128907 -1,-0.378907 -0.17578,-0.253906 -0.26562,-0.582031 -0.26562,-0.980469 v -4.152343 h -0.85157 v -0.859375 h 0.85157 z M 72.945312,16.402344"
     id="path3" />
  <path
     style="fill:#ffffff;fill-opacity:1;fill-rule:nonzero;stroke:#000000;stroke-width:0.999613;stroke-linecap:butt;stroke-linejoin:miter;stroke-miterlimit:4;stroke-opacity:1"
     d="M 112.95709,76.019451 H 58.976588 v 35.988299 h 53.980502 z m 0,0"
     id="path4" />
  <path
     style="fill:#000000;fill-opacity:1;fill-rule:nonzero;stroke:none"
     d="m 74.550781,89.007812 h 1.160157 v 7.582032 h 4.359374 v 1.023437 h -5.519531 z m 6.636719,0 h 1.671875 l 2.472656,7.277344 2.453125,-7.277344 h 1.648438 v 8.605469 h -1.105469 v -5.074219 c 0,-0.175781 0.0039,-0.46875 0.01172,-0.875 0.0078,-0.40625 0.01172,-0.84375 0.01172,-1.304687 l -2.457031,7.253906 h -1.148437 l -2.472656,-7.253906 v 0.261719 c 0,0.210937 0.0039,0.53125 0.01562,0.964844 0.0078,0.429687 0.01563,0.75 0.01563,0.953124 v 5.074219 H 81.1875 Z m 14.445312,5.082032 -1.308593,-3.800782 -1.386719,3.800782 z m -1.917968,-5.082032 h 1.320312 l 3.121094,8.605469 H 96.875 l -0.871094,-2.578125 h -3.398437 l -0.933594,2.578125 H 90.476562 Z M 73.636719,88.375"
     id="path5" />
  <path
     style="fill:#ff0000;fill-opacity:1;stroke:#ff0000;stroke-width:0.871333;stroke-linecap:butt;stroke-linejoin:miter;stroke-miterlimit:4;stroke-opacity:1"
     d="m 117.4209,41.691975 c -4.60565,6.651728 -10.12445,14.628047 -15.19755,21.958061"
     id="path6" />
  <path
     style="fill:#ff0000;fill-opacity:1;fill-rule:nonzero;stroke:#ff0000;stroke-width:0.871333;stroke-linecap:butt;stroke-linejoin:miter;stroke-miterlimit:4;stroke-opacity:1"
     d="m 104.95558,65.198588 -7.606029,5.493515 2.065479,-8.481833 z m 0,0"
     id="path7" />
  <path
     style="fill:#ffffff;fill-opacity:1;fill-rule:nonzero;stroke:#000000;stroke-width:0.999613;stroke-linecap:butt;stroke-linejoin:miter;stroke-miterlimit:4;stroke-opacity:1"
     d="M 57.976587,149.49214 H 3.9999999 v 35.9883 H 57.976587 Z m 0,0"
     id="path8" />
  <path
     style="fill:#000000;fill-opacity:1;fill-rule:nonzero;stroke:none"
     d="m 14.910156,162.48047 h 1.160156 v 7.58203 h 4.359376 v 1.02344 h -5.519532 z m 9.972656,7.60937 c 0.390626,0 0.714844,-0.043 0.96875,-0.12109 0.453126,-0.15234 0.824219,-0.44531 1.113282,-0.88281 0.230468,-0.34766 0.398437,-0.78907 0.5,-1.33594 0.05859,-0.32422 0.08594,-0.625 0.08594,-0.89844 0,-1.0625 -0.210937,-1.89453 -0.636719,-2.48047 -0.421874,-0.58984 -1.105468,-0.88672 -2.042968,-0.88672 h -2.066406 v 6.60547 z m -3.25,-7.60937 h 3.484376 c 1.179687,0 2.097656,0.42187 2.75,1.26172 0.582031,0.75781 0.871093,1.73047 0.871093,2.91015 0,0.91016 -0.171875,1.73828 -0.515625,2.47657 -0.605468,1.30468 -1.644531,1.95703 -3.117187,1.95703 h -3.472657 z m 8.578126,0 h 1.671874 l 2.472657,7.27734 2.453125,-7.27734 h 1.648437 v 8.60547 h -1.105469 v -5.07422 c 0,-0.17578 0.0039,-0.46875 0.01172,-0.875 0.0078,-0.40625 0.01172,-0.84375 0.01172,-1.30469 l -2.453125,7.25391 h -1.152344 l -2.472656,-7.25391 v 0.26172 c 0,0.21094 0.0039,0.53125 0.01563,0.96484 0.0078,0.42969 0.01563,0.75 0.01563,0.95313 v 5.07422 H 30.21095 Z m 13.648437,-0.23438 c 1.089844,0 1.933594,0.28907 2.535156,0.86328 0.601563,0.57422 0.9375,1.22657 1,1.95704 h -1.132812 c -0.128907,-0.55469 -0.386719,-0.99219 -0.773438,-1.32032 -0.378906,-0.32422 -0.917969,-0.48437 -1.613281,-0.48437 -0.847656,0 -1.535156,0.29687 -2.054688,0.89453 -0.523437,0.59375 -0.78125,1.50781 -0.78125,2.73437 0,1.00782 0.234376,1.82422 0.703126,2.45313 0.472656,0.625 1.171874,0.9375 2.109374,0.9375 0.859376,0 1.507813,-0.32813 1.957032,-0.98828 0.238281,-0.34766 0.414062,-0.80469 0.53125,-1.3711 h 1.140625 c -0.101563,0.90625 -0.4375,1.66407 -1.007813,2.28125 -0.683594,0.73829 -1.605468,1.10547 -2.761718,1.10547 -1,0 -1.84375,-0.30078 -2.523438,-0.91015 -0.894531,-0.80078 -1.339844,-2.03516 -1.339844,-3.70313 0,-1.26953 0.335938,-2.30859 1.007813,-3.12109 0.726562,-0.88281 1.730469,-1.32813 3.003906,-1.32813 z m -29.863281,-0.39843"
     id="path9" />
  <g
     id="g29"
     transform="matrix(1.0005548,0,0,0.9654639,-1.5327949,2.8855375)">
    <path
       style="fill:none;stroke:#ff0000;stroke-width:1.499;stroke-linecap:butt;stroke-linejoin:miter;stroke-miterlimit:4;stroke-dasharray:none;stroke-opacity:1"
       d="M 90.800821,40.257716 C 75.894565,49.062407 60.082057,61.015539 49.98049,76.019451 37.703141,94.25774 33.136732,118.914 31.542981,137.80072"
       id="path10" />
    <path
       style="fill:#ff0000;fill-opacity:1;fill-rule:nonzero;stroke:#ff0000;stroke-width:1.499;stroke-linecap:butt;stroke-linejoin:miter;stroke-miterlimit:4;stroke-dasharray:none;stroke-opacity:1"
       d="m 35.027358,138.13275 -4.109377,9.76173 -2.875001,-10.19141 z m 0,0"
       id="path11" />
  </g>
  <path
     style="fill:#ffffff;fill-opacity:1;fill-rule:nonzero;stroke:#000000;stroke-width:0.999613;stroke-linecap:butt;stroke-linejoin:miter;stroke-miterlimit:4;stroke-opacity:1"
     d="m 235.75792,143.49214 h -121.6524 v 35.9883 h 121.6524 z m 0,0"
     id="path12" />
  <path
     style="fill:#000000;fill-opacity:1;fill-rule:nonzero;stroke:none"
     d="m 126.79688,156.24609 c 1.08984,0 1.93749,0.28907 2.53906,0.86328 0.60156,0.57422 0.9375,1.22657 1,1.95704 h -1.13282 c -0.1289,-0.55469 -0.38671,-0.99219 -0.77343,-1.32032 -0.38282,-0.32422 -0.92188,-0.48437 -1.61719,-0.48437 -0.84375,0 -1.53125,0.29687 -2.05078,0.89453 -0.52344,0.59375 -0.78125,1.50781 -0.78125,2.73437 0,1.00782 0.23437,1.82422 0.70312,2.45313 0.47266,0.625 1.17188,0.9375 2.10547,0.9375 0.85938,0 1.51172,-0.32813 1.96094,-0.98828 0.23828,-0.34766 0.41406,-0.80469 0.53125,-1.3711 h 1.14062 c -0.10156,0.90625 -0.4375,1.66407 -1.00781,2.28125 -0.68359,0.73829 -1.60937,1.10547 -2.76562,1.10547 -0.9961,0 -1.83985,-0.30078 -2.51953,-0.91015 -0.89453,-0.80078 -1.33985,-2.03516 -1.33985,-3.70313 0,-1.26953 0.33594,-2.30859 1.00782,-3.12109 0.72656,-0.88281 1.73046,-1.32813 3,-1.32813 z m 4.90234,0.20703 h 1.05469 v 3.21094 c 0.25,-0.3164 0.47656,-0.53906 0.67187,-0.66797 0.33984,-0.22265 0.76563,-0.33593 1.27344,-0.33593 0.91015,0 1.52344,0.32031 1.84765,0.95703 0.17579,0.34765 0.26563,0.83203 0.26563,1.44531 v 4.02344 h -1.08203 v -3.95313 c 0,-0.45703 -0.0586,-0.79687 -0.17578,-1.01172 -0.19141,-0.34375 -0.55078,-0.51562 -1.07813,-0.51562 -0.4375,0 -0.83203,0.14844 -1.1914,0.45312 -0.35547,0.30078 -0.53125,0.86328 -0.53125,1.69922 v 3.32813 h -1.05469 z m 6.69922,0.0273 h 1.05468 v 8.60547 h -1.05468 z m 5.125,7.92578 c 0.69922,0 1.17578,-0.26563 1.4375,-0.79297 0.25781,-0.53125 0.39062,-1.12109 0.39062,-1.76953 0,-0.58594 -0.0937,-1.0625 -0.28125,-1.42578 -0.29687,-0.57813 -0.8125,-0.86719 -1.53906,-0.86719 -0.64453,0 -1.10938,0.25 -1.40625,0.74219 -0.29297,0.48828 -0.4375,1.08203 -0.4375,1.77734 0,0.66797 0.14844,1.22266 0.4375,1.66797 0.29297,0.44531 0.75781,0.66797 1.39844,0.66797 z m 0.0391,-5.77344 c 0.80859,0 1.49219,0.26953 2.05078,0.8086 0.55469,0.53906 0.83594,1.32812 0.83594,2.375 0,1.01171 -0.25,1.84765 -0.73828,2.50781 -0.49219,0.66015 -1.25391,0.98828 -2.28907,0.98828 -0.86328,0 -1.54687,-0.28906 -2.05468,-0.875 -0.50782,-0.58203 -0.76563,-1.36719 -0.76563,-2.35156 0,-1.05469 0.26953,-1.89063 0.80469,-2.51563 0.53516,-0.625 1.25391,-0.9375 2.15625,-0.9375 z m 4.17187,0.1836 h 1 v 1.08203 c 0.082,-0.21094 0.28125,-0.46875 0.60157,-0.76953 0.32031,-0.30469 0.6914,-0.45313 1.10937,-0.45313 0.0195,0 0.0547,0 0.10156,0.004 0.0469,0.004 0.125,0.0117 0.23829,0.0234 v 1.11329 c -0.0625,-0.0117 -0.1211,-0.0195 -0.17188,-0.0234 -0.0547,-0.004 -0.11328,-0.008 -0.17578,-0.008 -0.53125,0 -0.9375,0.17187 -1.22266,0.51562 -0.28515,0.33984 -0.42578,0.73047 -0.42578,1.17578 v 3.60938 h -1.05469 z m 6.45704,5.58984 c 0.69921,0 1.17578,-0.26563 1.4375,-0.79297 0.25781,-0.53125 0.39062,-1.12109 0.39062,-1.76953 0,-0.58594 -0.0937,-1.0625 -0.28125,-1.42578 -0.29687,-0.57813 -0.8125,-0.86719 -1.53906,-0.86719 -0.64453,0 -1.10938,0.25 -1.40625,0.74219 -0.29297,0.48828 -0.4375,1.08203 -0.4375,1.77734 0,0.66797 0.14844,1.22266 0.4375,1.66797 0.29297,0.44531 0.75781,0.66797 1.39844,0.66797 z m 0.0391,-5.77344 c 0.80859,0 1.49219,0.26953 2.04687,0.8086 0.5586,0.53906 0.83985,1.32812 0.83985,2.375 0,1.01171 -0.25,1.84765 -0.74219,2.50781 -0.48828,0.66015 -1.25,0.98828 -2.28516,0.98828 -0.86328,0 -1.54687,-0.28906 -2.05468,-0.875 -0.50782,-0.58203 -0.76563,-1.36719 -0.76563,-2.35156 0,-1.05469 0.26953,-1.89063 0.80469,-2.51563 0.53515,-0.625 1.2539,-0.9375 2.15625,-0.9375 z m 6.78515,5.74219 c 0.49219,0 0.90235,-0.20313 1.22657,-0.61719 0.32812,-0.41015 0.49218,-1.02734 0.49218,-1.84765 0,-0.5 -0.0742,-0.92969 -0.21875,-1.28516 -0.27343,-0.69141 -0.77343,-1.03516 -1.5,-1.03516 -0.73046,0 -1.23046,0.36328 -1.5,1.09375 -0.14453,0.38672 -0.21875,0.88282 -0.21875,1.48438 0,0.48437 0.0742,0.89453 0.21875,1.23828 0.27344,0.64844 0.77344,0.96875 1.5,0.96875 z m -2.73046,-5.53125 h 1.02734 v 0.83203 c 0.21094,-0.28516 0.4375,-0.50781 0.6875,-0.66406 0.35547,-0.23438 0.77344,-0.35156 1.25781,-0.35156 0.71094,0 1.3125,0.27343 1.8086,0.82031 0.49609,0.54297 0.74609,1.3164 0.74609,2.33203 0,1.36719 -0.35938,2.34375 -1.07422,2.92969 -0.45312,0.37109 -0.98047,0.55468 -1.58203,0.55468 -0.47266,0 -0.86719,-0.10156 -1.1875,-0.3125 -0.1875,-0.11718 -0.39844,-0.3164 -0.62891,-0.60156 v 3.20313 h -1.05468 z m 6.75781,-2.39063 h 1.05469 v 3.21094 c 0.24609,-0.3164 0.47265,-0.53906 0.66796,-0.66797 0.33985,-0.22265 0.76563,-0.33593 1.27344,-0.33593 0.91016,0 1.52735,0.32031 1.85156,0.95703 0.17579,0.34765 0.26563,0.83203 0.26563,1.44531 v 4.02344 h -1.08594 v -3.95313 c 0,-0.45703 -0.0586,-0.79687 -0.17578,-1.01172 -0.19141,-0.34375 -0.55078,-0.51562 -1.07812,-0.51562 -0.4375,0 -0.83204,0.14844 -1.19141,0.45312 -0.35156,0.30078 -0.52734,0.86328 -0.52734,1.69922 v 3.32813 h -1.05469 z m 10.59375,2.36329 h 1.16015 c -0.14843,0.40234 -0.47265,1.32031 -0.98828,2.74609 -0.38281,1.07812 -0.70312,1.96094 -0.96093,2.64062 -0.60938,1.60157 -1.03907,2.57813 -1.28907,2.92969 -0.25,0.35156 -0.67968,0.52344 -1.28906,0.52344 -0.14844,0 -0.26172,-0.004 -0.33984,-0.0156 -0.082,-0.0117 -0.17969,-0.0312 -0.29688,-0.0625 v -0.96093 c 0.1836,0.0508 0.31641,0.0781 0.39844,0.0937 0.082,0.0117 0.15234,0.0156 0.21484,0.0156 0.19532,0 0.33985,-0.0312 0.4336,-0.0977 0.0898,-0.0625 0.16797,-0.14454 0.23047,-0.23829 0.0195,-0.0312 0.0898,-0.1875 0.21093,-0.47656 0.1211,-0.28906 0.21094,-0.50781 0.26563,-0.64844 l -2.32031,-6.44921 h 1.19531 l 1.67969,5.10546 z m 2.10547,-2.33594 h 1.05468 v 8.60547 h -1.05468 z m 2.66406,0 h 1.05469 v 8.60547 h -1.05469 z m 9.73047,-0.23438 c 1.08984,0 1.9375,0.28907 2.53906,0.86328 0.60156,0.57422 0.9375,1.22657 1,1.95704 h -1.13281 c -0.12891,-0.55469 -0.38672,-0.99219 -0.77344,-1.32032 -0.38281,-0.32422 -0.92187,-0.48437 -1.61719,-0.48437 -0.84765,0 -1.53515,0.29687 -2.05468,0.89453 -0.52344,0.59375 -0.78125,1.50781 -0.78125,2.73437 0,1.00782 0.23437,1.82422 0.70312,2.45313 0.47266,0.625 1.17188,0.9375 2.10938,0.9375 0.85937,0 1.51171,-0.32813 1.96093,-0.98828 0.23828,-0.34766 0.41407,-0.80469 0.53125,-1.3711 h 1.14063 c -0.10156,0.90625 -0.4375,1.66407 -1.00781,2.28125 -0.6836,0.73829 -1.60938,1.10547 -2.76563,1.10547 -1,0 -1.84375,-0.30078 -2.52344,-0.91015 -0.89453,-0.80078 -1.33593,-2.03516 -1.33593,-3.70313 0,-1.26953 0.33203,-2.30859 1.0039,-3.12109 0.72656,-0.88281 1.73047,-1.32813 3.00391,-1.32813 z m 7.38672,8.16016 c 0.69922,0 1.17578,-0.26563 1.4375,-0.79297 0.25781,-0.53125 0.39062,-1.12109 0.39062,-1.76953 0,-0.58594 -0.0937,-1.0625 -0.28125,-1.42578 -0.29687,-0.57813 -0.8125,-0.86719 -1.53906,-0.86719 -0.64453,0 -1.10547,0.25 -1.40234,0.74219 -0.29297,0.48828 -0.4375,1.08203 -0.4375,1.77734 0,0.66797 0.14843,1.22266 0.4375,1.66797 0.29296,0.44531 0.7539,0.66797 1.39453,0.66797 z m 0.0391,-5.77344 c 0.80859,0 1.49219,0.26953 2.05078,0.8086 0.55859,0.53906 0.83984,1.32812 0.83984,2.375 0,1.01171 -0.25,1.84765 -0.74218,2.50781 -0.49219,0.66015 -1.25391,0.98828 -2.28907,0.98828 -0.86328,0 -1.54296,-0.28906 -2.05078,-0.875 -0.50781,-0.58203 -0.76562,-1.36719 -0.76562,-2.35156 0,-1.05469 0.26953,-1.89063 0.80469,-2.51563 0.53515,-0.625 1.25,-0.9375 2.15234,-0.9375 z m 4.14453,0.1836 h 1 v 0.89062 c 0.29688,-0.36719 0.61328,-0.63281 0.94531,-0.79297 0.33203,-0.16015 0.70313,-0.23828 1.10938,-0.23828 0.89062,0 1.49219,0.30859 1.80469,0.92969 0.16796,0.33984 0.2539,0.82812 0.2539,1.45703 v 4.02344 H 205.75 v -3.95313 c 0,-0.3789 -0.0586,-0.6914 -0.16797,-0.92578 -0.1875,-0.39062 -0.53125,-0.58594 -1.02344,-0.58594 -0.25,0 -0.45312,0.0273 -0.61328,0.0781 -0.28906,0.0859 -0.54297,0.25781 -0.76172,0.51562 -0.17578,0.20703 -0.28906,0.42188 -0.34375,0.63672 -0.0508,0.22266 -0.0781,0.53906 -0.0781,0.94531 v 3.28907 h -1.05469 z m 6.88281,-1.75391 h 1.06641 v 1.75391 h 1.00391 v 0.85937 h -1.00391 v 4.08984 c 0,0.21875 0.0742,0.36719 0.22266,0.44141 0.082,0.043 0.21875,0.0664 0.41015,0.0664 0.0508,0 0.10547,-0.004 0.16406,-0.004 0.0586,-0.004 0.12891,-0.008 0.20704,-0.0156 v 0.83203 c -0.1211,0.0352 -0.25,0.0625 -0.37891,0.0781 -0.13281,0.0156 -0.27344,0.0234 -0.42578,0.0234 -0.49219,0 -0.82813,-0.12891 -1,-0.37891 -0.17578,-0.2539 -0.26563,-0.58203 -0.26563,-0.98047 v -4.15234 h -0.85156 v -0.85937 h 0.85156 z m 5.73438,1.61328 c 0.44531,0 0.8789,0.10156 1.29297,0.3125 0.41797,0.20703 0.73828,0.47656 0.95703,0.8125 0.20703,0.31641 0.34765,0.68359 0.41797,1.10156 0.0625,0.28907 0.0937,0.75 0.0937,1.38282 h -4.59375 c 0.0195,0.63671 0.16797,1.14843 0.44922,1.53125 0.28125,0.38671 0.71484,0.57812 1.30859,0.57812 0.55078,0 0.98828,-0.18359 1.31641,-0.54297 0.1875,-0.21094 0.32031,-0.45703 0.39843,-0.73437 h 1.03125 c -0.0273,0.23047 -0.11718,0.48828 -0.26953,0.76953 -0.15234,0.28515 -0.32422,0.51562 -0.51562,0.69531 -0.32032,0.3125 -0.71875,0.52344 -1.1875,0.63281 -0.25391,0.0625 -0.54297,0.0937 -0.86328,0.0937 -0.78125,0 -1.44141,-0.28515 -1.98829,-0.85156 -0.54296,-0.57031 -0.8125,-1.36328 -0.8125,-2.38672 0,-1.00781 0.27344,-1.82422 0.82032,-2.45312 0.54687,-0.62891 1.26172,-0.94141 2.14453,-0.94141 z m 1.68359,2.76953 c -0.043,-0.45703 -0.14453,-0.8164 -0.30078,-1.08984 -0.28906,-0.50781 -0.76953,-0.76172 -1.44922,-0.76172 -0.48437,0 -0.89062,0.17578 -1.21875,0.52344 -0.32812,0.35156 -0.5,0.78906 -0.51953,1.32812 z m 2.375,-2.6289 h 1 v 0.89062 c 0.29688,-0.36719 0.61328,-0.63281 0.94531,-0.79297 0.33204,-0.16015 0.70313,-0.23828 1.10938,-0.23828 0.89062,0 1.49219,0.30859 1.80469,0.92969 0.17187,0.33984 0.25781,0.82812 0.25781,1.45703 v 4.02344 h -1.07422 v -3.95313 c 0,-0.3789 -0.0586,-0.6914 -0.16797,-0.92578 -0.1875,-0.39062 -0.53125,-0.58594 -1.02344,-0.58594 -0.25,0 -0.45312,0.0273 -0.61328,0.0781 -0.28906,0.0859 -0.54297,0.25781 -0.76172,0.51562 -0.17578,0.20703 -0.28906,0.42188 -0.34375,0.63672 -0.0508,0.22266 -0.0781,0.53906 -0.0781,0.94531 v 3.28907 h -1.05469 z m 6.88281,-1.75391 h 1.06641 v 1.75391 h 1 v 0.85937 h -1 v 4.08984 c 0,0.21875 0.0742,0.36719 0.22266,0.44141 0.082,0.043 0.21484,0.0664 0.40625,0.0664 0.0508,0 0.10547,-0.004 0.16406,-0.004 0.0586,-0.004 0.12891,-0.008 0.20703,-0.0156 v 0.83203 c -0.12109,0.0352 -0.25,0.0625 -0.37891,0.0781 -0.13281,0.0156 -0.26953,0.0234 -0.42187,0.0234 -0.49219,0 -0.82813,-0.12891 -1,-0.37891 -0.17578,-0.2539 -0.26563,-0.58203 -0.26563,-0.98047 v -4.15234 h -0.85156 v -0.85937 h 0.85156 z m -103.0039,-1.21484"
     id="path13" />
  <path
     style="fill:none;stroke:#000000;stroke-width:1.92373;stroke-linecap:butt;stroke-linejoin:miter;stroke-miterlimit:4;stroke-opacity:1"
     d="m 137.08531,41.839923 c 8.09095,21.738314 22.60708,60.714407 32.08481,86.168177"
     id="path14" />
  <path
     style="fill:#000000;fill-opacity:1;fill-rule:nonzero;stroke:#000000;stroke-width:1.92373;stroke-linecap:butt;stroke-linejoin:miter;stroke-miterlimit:4;stroke-opacity:1"
     d="m 172.78889,127.38828 -0.37746,9.32823 -6.63853,-7.48944 z m 0,0"
     id="path15" />
  <path
     style="fill:#ffffff;fill-opacity:1;fill-rule:nonzero;stroke:#000000;stroke-width:0.999613;stroke-linecap:butt;stroke-linejoin:miter;stroke-miterlimit:4;stroke-opacity:1"
     d="M 171.77742,222.96483 H 88.121133 v 35.9883 h 83.656287 z m 0,0"
     id="path16" />
  <path
     style="fill:#000000;fill-opacity:1;fill-rule:nonzero;stroke:none"
     d="m 100.91797,237.23437 c 0.80859,0 1.50781,0.15625 2.10156,0.46875 0.85547,0.44922 1.375,1.23438 1.57031,2.35938 h -1.15625 c -0.14062,-0.62891 -0.42968,-1.08594 -0.875,-1.375 -0.4414,-0.28516 -0.99609,-0.42969 -1.66796,-0.42969 -0.79688,0 -1.468755,0.29688 -2.011724,0.89844 -0.546875,0.59766 -0.820312,1.48047 -0.820312,2.66797 0,1.02344 0.226562,1.85547 0.675781,2.49609 0.449219,0.64453 1.183594,0.96485 2.199215,0.96485 0.77735,0 1.41797,-0.22657 1.92969,-0.67579 0.50781,-0.45312 0.76953,-1.18359 0.78125,-2.1914 h -2.69531 v -0.96485 h 3.78125 v 4.60547 h -0.75 l -0.28125,-1.10937 c -0.39453,0.43359 -0.74609,0.73437 -1.05078,0.90625 -0.51172,0.28906 -1.16016,0.42969 -1.94922,0.42969 -1.019532,0 -1.898439,-0.32813 -2.632814,-0.98829 -0.800781,-0.82812 -1.203125,-1.96484 -1.203125,-3.41015 0,-1.44141 0.390625,-2.58203 1.171875,-3.4336 0.742188,-0.8125 1.703125,-1.21875 2.882814,-1.21875 z m 5.5,2.55469 h 1 v 1.07813 c 0.082,-0.21094 0.28125,-0.46875 0.60156,-0.76563 0.32031,-0.30469 0.69141,-0.45312 1.10938,-0.45312 0.0195,0 0.0547,0 0.10156,0.004 0.0469,0.004 0.125,0.0117 0.23828,0.0234 v 1.10938 c -0.0625,-0.0117 -0.12109,-0.0195 -0.17187,-0.0234 -0.0547,-0.004 -0.11329,-0.008 -0.17579,-0.008 -0.53125,0 -0.9375,0.17187 -1.22265,0.51562 -0.28516,0.33984 -0.42578,0.73438 -0.42578,1.17969 v 3.60937 h -1.05469 z m 6.46094,5.58985 c 0.69922,0 1.17578,-0.26563 1.4375,-0.79297 0.25781,-0.53125 0.39062,-1.1211 0.39062,-1.76953 0,-0.58594 -0.0937,-1.0625 -0.28125,-1.42969 -0.29687,-0.57813 -0.8125,-0.86719 -1.53906,-0.86719 -0.64453,0 -1.10938,0.25 -1.40625,0.74219 -0.29297,0.49219 -0.4375,1.08594 -0.4375,1.78125 0,0.66797 0.14844,1.22265 0.4375,1.66797 0.29297,0.44531 0.75781,0.66797 1.39844,0.66797 z m 0.0391,-5.77344 c 0.80859,0 1.49219,0.26953 2.05078,0.80469 0.55859,0.53906 0.83984,1.33203 0.83984,2.3789 0,1.01172 -0.25,1.84766 -0.74218,2.50781 -0.49219,0.66016 -1.25391,0.98829 -2.28907,0.98829 -0.86328,0 -1.54687,-0.28907 -2.05468,-0.875 -0.50782,-0.58204 -0.76563,-1.36719 -0.76563,-2.35157 0,-1.05468 0.26953,-1.89453 0.80469,-2.51953 0.53516,-0.62109 1.25391,-0.93359 2.15625,-0.93359 z m 4.62109,0.18359 1.21094,4.94141 1.22266,-4.94141 h 1.18359 l 1.23047,4.91016 1.28516,-4.91016 h 1.05468 l -1.82422,6.26953 h -1.09765 l -1.27344,-4.85937 -1.23828,4.85937 h -1.09766 l -1.80859,-6.26953 z m 8.39063,-1.7539 h 1.0625 v 1.7539 h 1.0039 v 0.85547 h -1.0039 v 4.09375 c 0,0.21875 0.0742,0.36719 0.22265,0.44141 0.082,0.043 0.21875,0.0664 0.41016,0.0664 0.0508,0 0.10547,-0.004 0.16406,-0.004 0.0586,-0.004 0.12891,-0.008 0.20703,-0.0156 v 0.83203 c -0.12109,0.0352 -0.25,0.0625 -0.3789,0.0781 -0.13281,0.0156 -0.27344,0.0234 -0.42578,0.0234 -0.49219,0 -0.82813,-0.12891 -1,-0.37891 -0.17578,-0.25391 -0.26172,-0.58203 -0.26172,-0.98047 v -4.15625 h -0.85156 v -0.85547 h 0.85156 z m 3.12109,-0.60938 h 1.05469 v 3.20703 c 0.25,-0.3164 0.47656,-0.53515 0.67187,-0.66406 0.33985,-0.22266 0.76563,-0.33594 1.27344,-0.33594 0.91016,0 1.52734,0.32031 1.85156,0.95313 0.17578,0.34765 0.26563,0.83203 0.26563,1.44922 v 4.02343 h -1.08594 v -3.95312 c 0,-0.46094 -0.0586,-0.80078 -0.17578,-1.01563 -0.19141,-0.34375 -0.55078,-0.51562 -1.07813,-0.51562 -0.4375,0 -0.83203,0.14844 -1.1914,0.45312 -0.35547,0.30078 -0.53125,0.86719 -0.53125,1.70313 v 3.32812 h -1.05469 z m 14.14453,3.96875 c 0.54688,0 0.98047,-0.10937 1.30078,-0.32812 0.31641,-0.21875 0.47657,-0.61329 0.47657,-1.17969 0,-0.61328 -0.22266,-1.03125 -0.66797,-1.25391 -0.23828,-0.11719 -0.55469,-0.17578 -0.95313,-0.17578 H 140.5 v 2.9375 z m -3.85937,-3.94141 h 3.98437 c 0.65625,0 1.19531,0.0977 1.625,0.28907 0.8086,0.36718 1.20703,1.04687 1.20703,2.03125 0,0.51562 -0.10156,0.93359 -0.3164,1.26172 -0.21094,0.32812 -0.50782,0.59375 -0.89063,0.79296 0.33594,0.13672 0.58594,0.31641 0.75781,0.53907 0.16797,0.22265 0.26563,0.58203 0.28125,1.08203 l 0.043,1.15625 c 0.0117,0.32812 0.0391,0.57031 0.082,0.73437 0.0664,0.27344 0.19141,0.44532 0.3711,0.52344 v 0.19531 h -1.42578 c -0.0391,-0.0742 -0.0703,-0.17187 -0.0937,-0.28906 -0.0234,-0.11719 -0.043,-0.34375 -0.0586,-0.67969 l -0.0703,-1.43359 c -0.0273,-0.5625 -0.23828,-0.94141 -0.62891,-1.12891 -0.22265,-0.10547 -0.57031,-0.16015 -1.04687,-0.16015 H 140.5 v 3.6914 h -1.16406 z m 9.1875,6.9336 c 0,0.30469 0.11328,0.54687 0.33203,0.72265 0.22265,0.17579 0.48828,0.26172 0.79297,0.26172 0.37109,0 0.73047,-0.0859 1.07812,-0.25781 0.58594,-0.28516 0.87891,-0.75 0.87891,-1.39844 v -0.85156 c -0.12891,0.082 -0.29688,0.15234 -0.5,0.20703 -0.20313,0.0547 -0.39844,0.0937 -0.59375,0.11719 l -0.64063,0.082 c -0.38281,0.0508 -0.67187,0.13281 -0.85937,0.24219 -0.32422,0.18359 -0.48828,0.47656 -0.48828,0.875 z m 2.55468,-2.13281 c 0.24219,-0.0312 0.40235,-0.13282 0.48829,-0.30469 0.0469,-0.0937 0.0703,-0.22656 0.0703,-0.40235 0,-0.35937 -0.12891,-0.62109 -0.38672,-0.78125 -0.25391,-0.16406 -0.62109,-0.24609 -1.09766,-0.24609 -0.55078,0 -0.9414,0.14844 -1.17187,0.44531 -0.12891,0.16407 -0.21094,0.41016 -0.25,0.73438 h -0.98438 c 0.0195,-0.77344 0.26953,-1.3125 0.75,-1.60938 0.48438,-0.30468 1.04297,-0.45703 1.67969,-0.45703 0.73828,0 1.33594,0.14063 1.79688,0.42188 0.45703,0.27734 0.6875,0.71484 0.6875,1.30859 v 3.61719 c 0,0.10937 0.0234,0.19531 0.0664,0.26562 0.0469,0.0664 0.14063,0.0977 0.28516,0.0977 0.0469,0 0.10156,-0.004 0.15625,-0.008 0.0586,-0.008 0.125,-0.0156 0.1875,-0.0273 v 0.78125 c -0.16406,0.0469 -0.28906,0.0742 -0.375,0.0859 -0.0859,0.0117 -0.20313,0.0156 -0.35156,0.0156 -0.36329,0 -0.625,-0.125 -0.78907,-0.38282 -0.0859,-0.13672 -0.14843,-0.33203 -0.17968,-0.58203 -0.21485,0.28125 -0.52344,0.52735 -0.92969,0.73047 -0.40235,0.20703 -0.84375,0.3125 -1.32813,0.3125 -0.58203,0 -1.05859,-0.17578 -1.42578,-0.53125 -0.37109,-0.35156 -0.55469,-0.79687 -0.55469,-1.32812 0,-0.58204 0.1836,-1.03125 0.54297,-1.35157 0.36328,-0.32031 0.84375,-0.51562 1.42969,-0.59375 z m 3.52344,-4.21875 h 1.06641 v 1.7539 h 1 v 0.85547 h -1 v 4.09375 c 0,0.21875 0.0742,0.36719 0.22265,0.44141 0.082,0.043 0.21875,0.0664 0.40625,0.0664 0.0508,0 0.10547,-0.004 0.16407,-0.004 0.0586,-0.004 0.1289,-0.008 0.20703,-0.0156 v 0.83203 c -0.1211,0.0352 -0.25,0.0625 -0.37891,0.0781 -0.1289,0.0156 -0.26953,0.0234 -0.42187,0.0234 -0.49219,0 -0.82813,-0.12891 -1,-0.37891 -0.17578,-0.25391 -0.26563,-0.58203 -0.26563,-0.98047 v -4.15625 H 153.75 v -0.85547 h 0.85156 z m 5.73047,1.61328 c 0.44531,0 0.87891,0.10156 1.29297,0.3125 0.41797,0.20703 0.73828,0.47265 0.95703,0.80859 0.21094,0.31641 0.35156,0.68359 0.42188,1.10547 0.0625,0.28906 0.0937,0.75 0.0937,1.38281 H 158.5 c 0.0195,0.63672 0.16797,1.14844 0.44922,1.53125 0.28125,0.38672 0.71484,0.57813 1.30859,0.57813 0.55078,0 0.98828,-0.1836 1.31641,-0.54297 0.1875,-0.21094 0.32031,-0.45703 0.39844,-0.73438 h 1.03515 c -0.0273,0.23047 -0.11719,0.48828 -0.26953,0.76953 -0.15625,0.28516 -0.32812,0.51563 -0.51953,0.69532 -0.32031,0.3125 -0.71875,0.52343 -1.1875,0.63281 -0.25391,0.0625 -0.54297,0.0937 -0.86328,0.0937 -0.78125,0 -1.44141,-0.28516 -1.98828,-0.85156 -0.54297,-0.57032 -0.8125,-1.36328 -0.8125,-2.38672 0,-1.00781 0.27343,-1.82813 0.82031,-2.45703 0.54687,-0.625 1.26172,-0.9375 2.14453,-0.9375 z m 1.68359,2.76953 c -0.043,-0.45703 -0.14453,-0.82031 -0.30078,-1.09375 -0.28906,-0.50781 -0.76953,-0.76172 -1.44922,-0.76172 -0.48437,0 -0.89062,0.17578 -1.21875,0.52344 -0.32812,0.35156 -0.5,0.79297 -0.51953,1.33203 z m -65.730464,-5.59766"
     id="path17" />
  <path
     style="fill:none;stroke:#000000;stroke-width:1.19133;stroke-linecap:butt;stroke-linejoin:miter;stroke-miterlimit:4;stroke-opacity:1"
     d="m 163.43356,40.074124 c 42.50666,30.344427 114.60335,92.738756 81.84403,148.178486 -13.48539,22.82267 -38.256,36.43825 -60.89005,44.47485"
     id="path18" />
  <path
     style="fill:#000000;fill-opacity:1;fill-rule:nonzero;stroke:#000000;stroke-width:1.19133;stroke-linecap:butt;stroke-linejoin:miter;stroke-miterlimit:4;stroke-opacity:1"
     d="m 185.32299,236.18667 -10.13649,-0.44246 8.18328,-6.44779 z m 0,0"
     id="path19" />
  <g
     id="g28"
     transform="matrix(0.87686581,0,0,0.87686581,5.1396459,15.917834)">
    <path
       style="fill:none;stroke:#bfbfbf;stroke-width:1.7993;stroke-linecap:butt;stroke-linejoin:miter;stroke-miterlimit:4;stroke-opacity:1"
       d="m 65.972686,120.18744 c -4.769534,6.24609 -9.867193,12.91797 -14.652352,19.1797"
       id="path20" />
    <path
       style="fill:#bfbfbf;fill-opacity:1;fill-rule:nonzero;stroke:#bfbfbf;stroke-width:1.7993;stroke-linecap:butt;stroke-linejoin:miter;stroke-miterlimit:4;stroke-opacity:1"
       d="m 63.246121,117.99603 8.847661,-5.82032 -3.289064,10.06642 z m 0,0"
       id="path21" />
    <path
       style="fill:#bfbfbf;fill-opacity:1;fill-rule:nonzero;stroke:#bfbfbf;stroke-width:1.7993;stroke-linecap:butt;stroke-linejoin:miter;stroke-miterlimit:4;stroke-opacity:1"
       d="m 53.898461,141.76167 -8.851567,5.81641 3.289065,-10.06642 z m 0,0"
       id="path22" />
  </g>
  <path
     style="fill:none;stroke:#ffb9b9;stroke-width:0.999613;stroke-linecap:butt;stroke-linejoin:miter;stroke-miterlimit:4;stroke-dasharray:4.99806, 1.99923;stroke-opacity:1"
     d="m 88.578165,112.25384 c 2.921876,18.40235 8.328129,47.4883 16.382815,71.7266 2.98048,8.96875 7.02344,18.42969 10.9922,26.87892"
     id="path23" />
  <path
     style="fill:#ffb9b9;fill-opacity:1;fill-rule:nonzero;stroke:#ffb9b9;stroke-width:0.999613;stroke-linecap:butt;stroke-linejoin:miter;stroke-miterlimit:4;stroke-opacity:1"
     d="m 119.11724,209.36717 1.21875,10.52344 -7.51172,-7.46485 z m 0,0"
     id="path24" />
  <g
     id="g30"
     transform="translate(0,3)">
    <path
       style="fill:none;stroke:#000000;stroke-width:2.66235;stroke-linecap:butt;stroke-linejoin:miter;stroke-miterlimit:4;stroke-opacity:1"
       d="m 55.871849,184.0051 c 10.824676,8.01795 24.030781,17.79978 35.711122,26.45119"
       id="path25" />
    <path
       style="fill:#000000;fill-opacity:1;fill-rule:nonzero;stroke:#000000;stroke-width:2.66235;stroke-linecap:butt;stroke-linejoin:miter;stroke-miterlimit:4;stroke-opacity:1"
       d="m 93.696361,208.14644 5.30237,7.80097 -8.920906,-2.72981 z m 0,0"
       id="path26" />
  </g>
  <path
     style="fill:none;stroke:#000000;stroke-width:2.49903;stroke-linecap:butt;stroke-linejoin:miter;stroke-miterlimit:4;stroke-opacity:1"
     d="m 166.58211,182.64841 c -5.07423,8.12109 -11.16407,17.85938 -16.75782,26.8086"
     id="path27" />
  <path
     style="fill:#000000;fill-opacity:1;fill-rule:nonzero;stroke:#000000;stroke-width:2.49903;stroke-linecap:butt;stroke-linejoin:miter;stroke-miterlimit:4;stroke-opacity:1"
     d="m 152.71881,211.42967 -8.26563,6.6211 2.33204,-10.32813 z m 0,0"
     id="path28" />
</svg>
