<?xml version="1.0" encoding="UTF-8" standalone="no"?>
<svg
   version="1.1"
   viewBox="0.0 0.0 960.0 720.0"
   fill="none"
   stroke="none"
   stroke-linecap="square"
   stroke-miterlimit="10"
   id="svg55"
   sodipodi:docname="nitrogen_DAG1.svg"
   inkscape:version="1.3.2 (091e20e, 2023-11-25)"
   inkscape:export-filename="nitrogen_DAG1.png"
   inkscape:export-xdpi="300"
   inkscape:export-ydpi="300"
   xmlns:inkscape="http://www.inkscape.org/namespaces/inkscape"
   xmlns:sodipodi="http://sodipodi.sourceforge.net/DTD/sodipodi-0.dtd"
   xmlns="http://www.w3.org/2000/svg"
   xmlns:svg="http://www.w3.org/2000/svg">
  <defs
     id="defs55">
    <marker
       style="overflow:visible"
       id="Triangle"
       refX="0"
       refY="0"
       orient="auto-start-reverse"
       inkscape:stockid="Triangle arrow"
       markerWidth="2"
       markerHeight="2"
       viewBox="0 0 1 1"
       inkscape:isstock="true"
       inkscape:collect="always"
       preserveAspectRatio="xMidYMid">
      <path
         transform="scale(0.5)"
         style="fill:context-stroke;fill-rule:evenodd;stroke:context-stroke;stroke-width:1pt"
         d="M 5.77,0 -2.88,5 V -5 Z"
         id="path135" />
    </marker>
    <rect
       x="57.67747"
       y="56.146209"
       width="43.385707"
       height="47.979488"
       id="rect56" />
    <rect
       x="70.733159"
       y="67.903833"
       width="48.098548"
       height="46.683885"
       id="rect55" />
    <rect
       x="57.677471"
       y="56.14621"
       width="43.385708"
       height="47.979488"
       id="rect56-5" />
    <clipPath
       clipPathUnits="userSpaceOnUse"
       id="clipPath1">
      <g
         id="g56">
        <path
           d="M 18.305083,39.315482 H 941.69492 V 731.85786 H 18.305083 Z"
           clip-rule="nonzero"
           id="path56"
           style="stroke-width:0.961864" />
      </g>
    </clipPath>
    <clipPath
       clipPathUnits="userSpaceOnUse"
       id="clipPath56">
      <g
         id="g57">
        <path
           d="M 18.305083,39.315482 H 941.69492 V 731.85786 H 18.305083 Z"
           clip-rule="nonzero"
           id="path57"
           style="stroke-width:0.961864" />
      </g>
    </clipPath>
    <clipPath
       clipPathUnits="userSpaceOnUse"
       id="clipPath57">
      <g
         id="g58">
        <path
           d="M 18.305083,39.315482 H 941.69492 V 731.85786 H 18.305083 Z"
           clip-rule="nonzero"
           id="path58"
           style="stroke-width:0.961864" />
      </g>
    </clipPath>
    <clipPath
       clipPathUnits="userSpaceOnUse"
       id="clipPath58">
      <g
         id="g59">
        <path
           d="M 18.305083,39.315482 H 941.69492 V 731.85786 H 18.305083 Z"
           clip-rule="nonzero"
           id="path59"
           style="stroke-width:0.961864" />
      </g>
    </clipPath>
    <clipPath
       clipPathUnits="userSpaceOnUse"
       id="clipPath59">
      <g
         id="g60">
        <path
           d="M 18.305083,39.315482 H 941.69492 V 731.85786 H 18.305083 Z"
           clip-rule="nonzero"
           id="path60"
           style="stroke-width:0.961864" />
      </g>
    </clipPath>
    <clipPath
       clipPathUnits="userSpaceOnUse"
       id="clipPath60">
      <g
         id="g61">
        <path
           d="M 18.305083,39.315482 H 941.69492 V 731.85786 H 18.305083 Z"
           clip-rule="nonzero"
           id="path61"
           style="stroke-width:0.961864" />
      </g>
    </clipPath>
    <clipPath
       clipPathUnits="userSpaceOnUse"
       id="clipPath61">
      <g
         id="g62">
        <path
           d="M 18.305083,39.315482 H 941.69492 V 731.85786 H 18.305083 Z"
           clip-rule="nonzero"
           id="path62"
           style="stroke-width:0.961864" />
      </g>
    </clipPath>
    <clipPath
       clipPathUnits="userSpaceOnUse"
       id="clipPath62">
      <g
         id="g63">
        <path
           d="M 18.305083,39.315482 H 941.69492 V 731.85786 H 18.305083 Z"
           clip-rule="nonzero"
           id="path63"
           style="stroke-width:0.961864" />
      </g>
    </clipPath>
    <clipPath
       clipPathUnits="userSpaceOnUse"
       id="clipPath63">
      <g
         id="g64">
        <path
           d="M 18.305083,39.315482 H 941.69492 V 731.85786 H 18.305083 Z"
           clip-rule="nonzero"
           id="path64"
           style="stroke-width:0.961864" />
      </g>
    </clipPath>
    <clipPath
       clipPathUnits="userSpaceOnUse"
       id="clipPath64">
      <g
         id="g65">
        <path
           d="M 18.305083,39.315482 H 941.69492 V 731.85786 H 18.305083 Z"
           clip-rule="nonzero"
           id="path65"
           style="stroke-width:0.961864" />
      </g>
    </clipPath>
    <clipPath
       clipPathUnits="userSpaceOnUse"
       id="clipPath65">
      <g
         id="g66">
        <path
           d="M 18.305083,39.315482 H 941.69492 V 731.85786 H 18.305083 Z"
           clip-rule="nonzero"
           id="path66"
           style="stroke-width:0.961864" />
      </g>
    </clipPath>
    <clipPath
       clipPathUnits="userSpaceOnUse"
       id="clipPath66">
      <g
         id="g67">
        <path
           d="M 18.305083,39.315482 H 941.69492 V 731.85786 H 18.305083 Z"
           clip-rule="nonzero"
           id="path67"
           style="stroke-width:0.961864" />
      </g>
    </clipPath>
    <clipPath
       clipPathUnits="userSpaceOnUse"
       id="clipPath67">
      <g
         id="g68">
        <path
           d="M 18.305083,39.315482 H 941.69492 V 731.85786 H 18.305083 Z"
           clip-rule="nonzero"
           id="path68"
           style="stroke-width:0.961864" />
      </g>
    </clipPath>
    <clipPath
       clipPathUnits="userSpaceOnUse"
       id="clipPath68">
      <g
         id="g69">
        <path
           d="M 18.305083,39.315482 H 941.69492 V 731.85786 H 18.305083 Z"
           clip-rule="nonzero"
           id="path69"
           style="stroke-width:0.961864" />
      </g>
    </clipPath>
    <clipPath
       clipPathUnits="userSpaceOnUse"
       id="clipPath69">
      <g
         id="g70">
        <path
           d="M 18.305083,39.315482 H 941.69492 V 731.85786 H 18.305083 Z"
           clip-rule="nonzero"
           id="path70"
           style="stroke-width:0.961864" />
      </g>
    </clipPath>
    <clipPath
       clipPathUnits="userSpaceOnUse"
       id="clipPath70">
      <g
         id="g71">
        <path
           d="M 18.305083,39.315482 H 941.69492 V 731.85786 H 18.305083 Z"
           clip-rule="nonzero"
           id="path71"
           style="stroke-width:0.961864" />
      </g>
    </clipPath>
    <clipPath
       clipPathUnits="userSpaceOnUse"
       id="clipPath71">
      <g
         id="g72">
        <path
           d="M 18.305083,39.315482 H 941.69492 V 731.85786 H 18.305083 Z"
           clip-rule="nonzero"
           id="path72"
           style="stroke-width:0.961864" />
      </g>
    </clipPath>
    <clipPath
       clipPathUnits="userSpaceOnUse"
       id="clipPath72">
      <g
         id="g73">
        <path
           d="M 18.305083,39.315482 H 941.69492 V 731.85786 H 18.305083 Z"
           clip-rule="nonzero"
           id="path73"
           style="stroke-width:0.961864" />
      </g>
    </clipPath>
    <clipPath
       clipPathUnits="userSpaceOnUse"
       id="clipPath73">
      <g
         id="g74">
        <path
           d="M 18.305083,39.315482 H 941.69492 V 731.85786 H 18.305083 Z"
           clip-rule="nonzero"
           id="path74"
           style="stroke-width:0.961864" />
      </g>
    </clipPath>
    <clipPath
       clipPathUnits="userSpaceOnUse"
       id="clipPath74">
      <g
         id="g75">
        <path
           d="M 18.305083,39.315482 H 941.69492 V 731.85786 H 18.305083 Z"
           clip-rule="nonzero"
           id="path75"
           style="stroke-width:0.961864" />
      </g>
    </clipPath>
    <clipPath
       clipPathUnits="userSpaceOnUse"
       id="clipPath75">
      <g
         id="g76">
        <path
           d="M 18.305083,39.315482 H 941.69492 V 731.85786 H 18.305083 Z"
           clip-rule="nonzero"
           id="path76"
           style="stroke-width:0.961864" />
      </g>
    </clipPath>
    <clipPath
       clipPathUnits="userSpaceOnUse"
       id="clipPath76">
      <g
         id="g77">
        <path
           d="M 18.305083,39.315482 H 941.69492 V 731.85786 H 18.305083 Z"
           clip-rule="nonzero"
           id="path77"
           style="stroke-width:0.961864" />
      </g>
    </clipPath>
    <clipPath
       clipPathUnits="userSpaceOnUse"
       id="clipPath77">
      <g
         id="g78">
        <path
           d="M 18.305083,39.315482 H 941.69492 V 731.85786 H 18.305083 Z"
           clip-rule="nonzero"
           id="path78"
           style="stroke-width:0.961864" />
      </g>
    </clipPath>
    <clipPath
       clipPathUnits="userSpaceOnUse"
       id="clipPath78">
      <g
         id="g79">
        <path
           d="M 18.305083,39.315482 H 941.69492 V 731.85786 H 18.305083 Z"
           clip-rule="nonzero"
           id="path79"
           style="stroke-width:0.961864" />
      </g>
    </clipPath>
    <clipPath
       clipPathUnits="userSpaceOnUse"
       id="clipPath79">
      <g
         id="g80">
        <path
           d="M 18.305083,39.315482 H 941.69492 V 731.85786 H 18.305083 Z"
           clip-rule="nonzero"
           id="path80"
           style="stroke-width:0.961864" />
      </g>
    </clipPath>
    <clipPath
       clipPathUnits="userSpaceOnUse"
       id="clipPath80">
      <g
         id="g81">
        <path
           d="M 18.305083,39.315482 H 941.69492 V 731.85786 H 18.305083 Z"
           clip-rule="nonzero"
           id="path81"
           style="stroke-width:0.961864" />
      </g>
    </clipPath>
    <clipPath
       clipPathUnits="userSpaceOnUse"
       id="clipPath81">
      <g
         id="g82">
        <path
           d="M 18.305083,39.315482 H 941.69492 V 731.85786 H 18.305083 Z"
           clip-rule="nonzero"
           id="path82"
           style="stroke-width:0.961864" />
      </g>
    </clipPath>
    <clipPath
       clipPathUnits="userSpaceOnUse"
       id="clipPath82">
      <g
         id="g83">
        <path
           d="M 18.305083,39.315482 H 941.69492 V 731.85786 H 18.305083 Z"
           clip-rule="nonzero"
           id="path83"
           style="stroke-width:0.961864" />
      </g>
    </clipPath>
    <clipPath
       clipPathUnits="userSpaceOnUse"
       id="clipPath83">
      <g
         id="g84">
        <path
           d="M 18.305083,39.315482 H 941.69492 V 731.85786 H 18.305083 Z"
           clip-rule="nonzero"
           id="path84"
           style="stroke-width:0.961864" />
      </g>
    </clipPath>
    <clipPath
       clipPathUnits="userSpaceOnUse"
       id="clipPath84">
      <g
         id="g85">
        <path
           d="M 18.305083,39.315482 H 941.69492 V 731.85786 H 18.305083 Z"
           clip-rule="nonzero"
           id="path85"
           style="stroke-width:0.961864" />
      </g>
    </clipPath>
    <clipPath
       clipPathUnits="userSpaceOnUse"
       id="clipPath85">
      <g
         id="g86">
        <path
           d="M 18.305083,39.315482 H 941.69492 V 731.85786 H 18.305083 Z"
           clip-rule="nonzero"
           id="path86"
           style="stroke-width:0.961864" />
      </g>
    </clipPath>
    <clipPath
       clipPathUnits="userSpaceOnUse"
       id="clipPath86">
      <g
         id="g87">
        <path
           d="M 18.305083,39.315482 H 941.69492 V 731.85786 H 18.305083 Z"
           clip-rule="nonzero"
           id="path87"
           style="stroke-width:0.961864" />
      </g>
    </clipPath>
    <clipPath
       clipPathUnits="userSpaceOnUse"
       id="clipPath87">
      <g
         id="g88">
        <path
           d="M 18.305083,39.315482 H 941.69492 V 731.85786 H 18.305083 Z"
           clip-rule="nonzero"
           id="path88"
           style="stroke-width:0.961864" />
      </g>
    </clipPath>
    <clipPath
       clipPathUnits="userSpaceOnUse"
       id="clipPath88">
      <g
         id="g89">
        <path
           d="M 18.305083,39.315482 H 941.69492 V 731.85786 H 18.305083 Z"
           clip-rule="nonzero"
           id="path89"
           style="stroke-width:0.961864" />
      </g>
    </clipPath>
    <clipPath
       clipPathUnits="userSpaceOnUse"
       id="clipPath89">
      <g
         id="g90">
        <path
           d="M 18.305083,39.315482 H 941.69492 V 731.85786 H 18.305083 Z"
           clip-rule="nonzero"
           id="path90"
           style="stroke-width:0.961864" />
      </g>
    </clipPath>
    <clipPath
       clipPathUnits="userSpaceOnUse"
       id="clipPath90">
      <g
         id="g91">
        <path
           d="M 18.305083,39.315482 H 941.69492 V 731.85786 H 18.305083 Z"
           clip-rule="nonzero"
           id="path91"
           style="stroke-width:0.961864" />
      </g>
    </clipPath>
    <clipPath
       clipPathUnits="userSpaceOnUse"
       id="clipPath91">
      <g
         id="g92">
        <path
           d="M 18.305083,39.315482 H 941.69492 V 731.85786 H 18.305083 Z"
           clip-rule="nonzero"
           id="path92"
           style="stroke-width:0.961864" />
      </g>
    </clipPath>
    <clipPath
       clipPathUnits="userSpaceOnUse"
       id="clipPath92">
      <g
         id="g93">
        <path
           d="M 18.305083,39.315482 H 941.69492 V 731.85786 H 18.305083 Z"
           clip-rule="nonzero"
           id="path93"
           style="stroke-width:0.961864" />
      </g>
    </clipPath>
    <clipPath
       clipPathUnits="userSpaceOnUse"
       id="clipPath93">
      <g
         id="g94">
        <path
           d="M 18.305083,39.315482 H 941.69492 V 731.85786 H 18.305083 Z"
           clip-rule="nonzero"
           id="path94"
           style="stroke-width:0.961864" />
      </g>
    </clipPath>
    <clipPath
       clipPathUnits="userSpaceOnUse"
       id="clipPath94">
      <g
         id="g95">
        <path
           d="M 18.305083,39.315482 H 941.69492 V 731.85786 H 18.305083 Z"
           clip-rule="nonzero"
           id="path95"
           style="stroke-width:0.961864" />
      </g>
    </clipPath>
    <clipPath
       clipPathUnits="userSpaceOnUse"
       id="clipPath95">
      <g
         id="g96">
        <path
           d="M 18.305083,39.315482 H 941.69492 V 731.85786 H 18.305083 Z"
           clip-rule="nonzero"
           id="path96"
           style="stroke-width:0.961864" />
      </g>
    </clipPath>
    <clipPath
       clipPathUnits="userSpaceOnUse"
       id="clipPath96">
      <g
         id="g97">
        <path
           d="M 18.305083,39.315482 H 941.69492 V 731.85786 H 18.305083 Z"
           clip-rule="nonzero"
           id="path97"
           style="stroke-width:0.961864" />
      </g>
    </clipPath>
    <clipPath
       clipPathUnits="userSpaceOnUse"
       id="clipPath97">
      <g
         id="g98">
        <path
           d="M 18.305083,39.315482 H 941.69492 V 731.85786 H 18.305083 Z"
           clip-rule="nonzero"
           id="path98"
           style="stroke-width:0.961864" />
      </g>
    </clipPath>
    <clipPath
       clipPathUnits="userSpaceOnUse"
       id="clipPath98">
      <g
         id="g99">
        <path
           d="M 18.305083,39.315482 H 941.69492 V 731.85786 H 18.305083 Z"
           clip-rule="nonzero"
           id="path99"
           style="stroke-width:0.961864" />
      </g>
    </clipPath>
    <clipPath
       clipPathUnits="userSpaceOnUse"
       id="clipPath99">
      <g
         id="g100">
        <path
           d="M 18.305083,39.315482 H 941.69492 V 731.85786 H 18.305083 Z"
           clip-rule="nonzero"
           id="path100"
           style="stroke-width:0.961864" />
      </g>
    </clipPath>
    <clipPath
       clipPathUnits="userSpaceOnUse"
       id="clipPath100">
      <g
         id="g101">
        <path
           d="M 18.305083,39.315482 H 941.69492 V 731.85786 H 18.305083 Z"
           clip-rule="nonzero"
           id="path101"
           style="stroke-width:0.961864" />
      </g>
    </clipPath>
    <clipPath
       clipPathUnits="userSpaceOnUse"
       id="clipPath101">
      <g
         id="g102">
        <path
           d="M 18.305083,39.315482 H 941.69492 V 731.85786 H 18.305083 Z"
           clip-rule="nonzero"
           id="path102"
           style="stroke-width:0.961864" />
      </g>
    </clipPath>
    <clipPath
       clipPathUnits="userSpaceOnUse"
       id="clipPath102">
      <g
         id="g103">
        <path
           d="M 18.305083,39.315482 H 941.69492 V 731.85786 H 18.305083 Z"
           clip-rule="nonzero"
           id="path103"
           style="stroke-width:0.961864" />
      </g>
    </clipPath>
    <clipPath
       clipPathUnits="userSpaceOnUse"
       id="clipPath103">
      <g
         id="g104">
        <path
           d="M 18.305083,39.315482 H 941.69492 V 731.85786 H 18.305083 Z"
           clip-rule="nonzero"
           id="path104"
           style="stroke-width:0.961864" />
      </g>
    </clipPath>
    <clipPath
       clipPathUnits="userSpaceOnUse"
       id="clipPath104">
      <g
         id="g105">
        <path
           d="M 18.305083,39.315482 H 941.69492 V 731.85786 H 18.305083 Z"
           clip-rule="nonzero"
           id="path105"
           style="stroke-width:0.961864" />
      </g>
    </clipPath>
    <clipPath
       clipPathUnits="userSpaceOnUse"
       id="clipPath105">
      <g
         id="g106">
        <path
           d="M 18.305083,39.315482 H 941.69492 V 731.85786 H 18.305083 Z"
           clip-rule="nonzero"
           id="path106"
           style="stroke-width:0.961864" />
      </g>
    </clipPath>
    <clipPath
       clipPathUnits="userSpaceOnUse"
       id="clipPath106">
      <g
         id="g107">
        <path
           d="M 18.305083,39.315482 H 941.69492 V 731.85786 H 18.305083 Z"
           clip-rule="nonzero"
           id="path107"
           style="stroke-width:0.961864" />
      </g>
    </clipPath>
    <clipPath
       clipPathUnits="userSpaceOnUse"
       id="clipPath107">
      <g
         id="g108">
        <path
           d="M 18.305083,39.315482 H 941.69492 V 731.85786 H 18.305083 Z"
           clip-rule="nonzero"
           id="path108"
           style="stroke-width:0.961864" />
      </g>
    </clipPath>
    <clipPath
       clipPathUnits="userSpaceOnUse"
       id="clipPath108">
      <g
         id="g109">
        <path
           d="M 18.305083,39.315482 H 941.69492 V 731.85786 H 18.305083 Z"
           clip-rule="nonzero"
           id="path109"
           style="stroke-width:0.961864" />
      </g>
    </clipPath>
  </defs>
  <sodipodi:namedview
     id="namedview55"
     pagecolor="#ffffff"
     bordercolor="#000000"
     borderopacity="0.25"
     inkscape:showpageshadow="2"
     inkscape:pageopacity="0.0"
     inkscape:pagecheckerboard="0"
     inkscape:deskcolor="#d1d1d1"
     inkscape:zoom="0.84534051"
     inkscape:cx="481.46279"
     inkscape:cy="270.89675"
     inkscape:window-width="1488"
     inkscape:window-height="1027"
     inkscape:window-x="335"
     inkscape:window-y="94"
     inkscape:window-maximized="0"
     inkscape:current-layer="svg55" />
  <path
     fill="#000000"
     fill-opacity="0"
     d="M 18.305083,39.315482 H 941.69492 V 731.85786 H 18.305083 Z"
     fill-rule="evenodd"
     id="path2"
     style="stroke-width:0.961864"
     clip-path="url(#clipPath108)" />
  <path
     fill="#ffffff"
     d="M 24.76043,294.89623 H 233.31082 V 409.80494 H 24.76043 Z"
     fill-rule="evenodd"
     id="path3"
     style="stroke-width:0.961864"
     clip-path="url(#clipPath107)" />
  <path
     stroke="#000000"
     stroke-width="0.961864"
     stroke-linejoin="round"
     stroke-linecap="butt"
     d="M 24.76043,294.89623 H 233.31082 V 409.80494 H 24.76043 Z"
     fill-rule="evenodd"
     id="path4"
     clip-path="url(#clipPath106)" />
  <path
     fill="#000000"
     d="m 95.981967,359.00668 v -12.84991 h 2.524894 l 5.245169,8.58164 v -8.58164 h 2.41969 v 12.84991 h -2.60004 l -5.185052,-8.37123 v 8.37123 z m 19.030913,0 v -1.39771 q -0.51099,0.75145 -1.33759,1.1873 -0.8266,0.42082 -1.74338,0.42082 -0.9318,0 -1.68326,-0.40579 -0.73643,-0.42082 -1.0821,-1.15724 -0.33064,-0.75146 -0.33064,-2.059 v -5.89142 h 2.46478 v 4.26828 q 0,1.96882 0.13526,2.41969 0.13526,0.43584 0.49596,0.69134 0.3607,0.25549 0.91678,0.25549 0.63122,0 1.12718,-0.34566 0.49596,-0.34568 0.67631,-0.85667 0.19539,-0.51099 0.19539,-2.50986 v -3.92261 h 2.44974 v 9.30304 z m 9.11281,-9.30304 v 1.95379 h -1.68326 v 3.75728 q 0,1.14222 0.0451,1.3376 0.0451,0.18035 0.21041,0.30058 0.18035,0.12024 0.42081,0.12024 0.34568,0 0.99193,-0.24047 l 0.21041,1.92373 q -0.85666,0.3607 -1.93876,0.3607 -0.67631,0 -1.21736,-0.22544 -0.52602,-0.22543 -0.78152,-0.57111 -0.24046,-0.3607 -0.33064,-0.96186 -0.0901,-0.43584 -0.0901,-1.74338 v -4.05787 h -1.12718 v -1.95379 h 1.12718 v -1.84857 l 2.47981,-1.4428 v 3.29137 z m 4.06705,9.30304 h -2.46477 v -9.30304 h 2.28442 v 1.32257 q 0.58614,-0.94683 1.05204,-1.23239 0.4659,-0.30058 1.06707,-0.30058 0.84163,0 1.62314,0.4659 l -0.76648,2.14917 q -0.6162,-0.40579 -1.15725,-0.40579 -0.51099,0 -0.87169,0.28555 -0.36069,0.28556 -0.5711,1.03702 -0.19538,0.73642 -0.19538,3.11102 z m 4.62382,-10.56548 v -2.28443 h 2.46478 v 2.28443 z m 0,10.56548 v -9.30304 h 2.46478 v 9.30304 z m 10.36606,-2.96074 2.44975,0.40579 q -0.4659,1.35262 -1.48788,2.05899 -1.02198,0.70637 -2.55496,0.70637 -2.41968,0 -3.59195,-1.59309 -0.91678,-1.26245 -0.91678,-3.20121 0,-2.31448 1.20233,-3.62201 1.21736,-1.30754 3.06595,-1.30754 2.07401,0 3.27634,1.36765 1.20233,1.36765 1.14221,4.20816 h -6.16193 q 0.03,1.09712 0.58613,1.71332 0.57111,0.60117 1.42776,0.60117 0.57111,0 0.96187,-0.31562 0.40578,-0.31561 0.60116,-1.02198 z m 0.15029,-2.49484 q -0.03,-1.06706 -0.55608,-1.62314 -0.52601,-0.55608 -1.27747,-0.55608 -0.81156,0 -1.33759,0.58613 -0.52601,0.58615 -0.51099,1.59309 z m 12.91072,5.45558 h -2.46477 v -4.7492 q 0,-1.50292 -0.16532,-1.93877 -0.15029,-0.45087 -0.51099,-0.69134 -0.34567,-0.25549 -0.84163,-0.25549 -0.64626,0 -1.15725,0.3607 -0.51099,0.34567 -0.70636,0.93181 -0.18035,0.57111 -0.18035,2.13413 v 4.20816 h -2.44977 v -9.30304 h 2.28444 v 1.36766 q 1.21737,-1.57806 3.06594,-1.57806 0.81158,0 1.48789,0.30058 0.67631,0.28556 1.02198,0.75146 0.34567,0.45087 0.48094,1.03701 0.13525,0.57111 0.13525,1.63817 z m 6.76826,-9.30304 v 1.95379 h -1.68326 v 3.75728 q 0,1.14222 0.0451,1.3376 0.0451,0.18035 0.21041,0.30058 0.18035,0.12024 0.42081,0.12024 0.34568,0 0.99192,-0.24047 l 0.21041,1.92373 q -0.85665,0.3607 -1.93875,0.3607 -0.67632,0 -1.21737,-0.22544 -0.52601,-0.22543 -0.78151,-0.57111 -0.24047,-0.3607 -0.33064,-0.96186 -0.0901,-0.43584 -0.0901,-1.74338 v -4.05787 h -1.12718 v -1.95379 h 1.12718 v -1.84857 l 2.47981,-1.4428 v 3.29137 z"
     fill-rule="nonzero"
     id="path5"
     style="stroke-width:0.961864"
     clip-path="url(#clipPath105)" />
  <path
     fill="#ffffff"
     d="m 726.68917,294.89623 h 208.5504 v 114.90871 h -208.5504 z"
     fill-rule="evenodd"
     id="path6"
     style="stroke-width:0.961864"
     clip-path="url(#clipPath104)"
     transform="translate(2)" />
  <path
     stroke="#000000"
     stroke-width="0.961864"
     stroke-linejoin="round"
     stroke-linecap="butt"
     d="m 726.68917,294.89623 h 208.5504 v 114.90871 h -208.5504 z"
     fill-rule="evenodd"
     id="path7"
     clip-path="url(#clipPath103)"
     transform="translate(2)" />
  <path
     fill="#000000"
     d="m 748.49749,359.00668 v -12.84991 h 4.16306 q 2.35958,0 3.08098,0.19538 1.09712,0.28555 1.84858,1.26245 0.75145,0.96186 0.75145,2.49484 0,1.18729 -0.43584,1.99887 -0.43585,0.79654 -1.09713,1.26244 -0.66128,0.45088 -1.33759,0.60117 -0.9318,0.19538 -2.69022,0.19538 h -1.69828 v 4.83938 z M 751.0825,348.336 v 3.63705 h 1.42776 q 1.53297,0 2.04396,-0.19539 0.52603,-0.19537 0.81157,-0.63122 0.30059,-0.43584 0.30059,-0.99192 0,-0.70637 -0.42082,-1.15724 -0.40578,-0.46591 -1.037,-0.57111 -0.46591,-0.0901 -1.86362,-0.0901 z m 14.74939,7.70994 2.44974,0.40579 q -0.4659,1.35262 -1.48788,2.05899 -1.02198,0.70637 -2.55495,0.70637 -2.41969,0 -3.59197,-1.59309 -0.91677,-1.26245 -0.91677,-3.20121 0,-2.31448 1.20233,-3.62201 1.21736,-1.30754 3.06594,-1.30754 2.07403,0 3.27636,1.36765 1.20233,1.36765 1.14221,4.20816 h -6.16194 q 0.03,1.09712 0.58613,1.71332 0.5711,0.60117 1.42777,0.60117 0.57111,0 0.96186,-0.31562 0.40579,-0.31561 0.60117,-1.02198 z m 0.15029,-2.49484 q -0.03,-1.06706 -0.55608,-1.62314 -0.52602,-0.55608 -1.27747,-0.55608 -0.81158,0 -1.3376,0.58613 -0.52602,0.58615 -0.51099,1.59309 z m 6.80889,5.45558 h -2.46477 v -9.30304 h 2.28442 v 1.32257 q 0.58615,-0.94683 1.05204,-1.23239 0.46591,-0.30058 1.06708,-0.30058 0.84163,0 1.62314,0.4659 l -0.76649,2.14917 q -0.61619,-0.40579 -1.15724,-0.40579 -0.51099,0 -0.87169,0.28555 -0.36069,0.28556 -0.5711,1.03702 -0.19539,0.73642 -0.19539,3.11102 z m 3.54171,-9.30304 h 1.36766 v -0.70636 q 0,-1.17227 0.24047,-1.74338 0.25549,-0.58614 0.91677,-0.94684 0.67631,-0.3607 1.71332,-0.3607 1.05204,0 2.05899,0.31562 l -0.34567,1.71332 q -0.58613,-0.13527 -1.12718,-0.13527 -0.52602,0 -0.76649,0.2555 -0.22543,0.24047 -0.22543,0.94683 v 0.66128 h 1.83355 v 1.93877 h -1.83355 v 7.36427 h -2.46478 v -7.36427 h -1.36766 z m 6.48678,4.52378 q 0,-1.23239 0.60116,-2.3746 0.60117,-1.15725 1.71333,-1.75842 1.11215,-0.60116 2.47981,-0.60116 2.10408,0 3.4567,1.36765 1.35262,1.36765 1.35262,3.47173 0,2.10408 -1.36766,3.50179 -1.36764,1.38268 -3.42664,1.38268 -1.27747,0 -2.44974,-0.57111 -1.15725,-0.58614 -1.75842,-1.69829 -0.60116,-1.12718 -0.60116,-2.72027 z m 2.52489,0.12023 q 0,1.39771 0.64626,2.13414 0.66128,0.7214 1.62315,0.7214 0.96186,0 1.60811,-0.7214 0.66128,-0.73643 0.66128,-2.14917 0,-1.36765 -0.66128,-2.10408 -0.64625,-0.73642 -1.60811,-0.73642 -0.96187,0 -1.62315,0.73642 -0.64626,0.73643 -0.64626,2.11911 z m 11.36713,4.65903 h -2.46477 v -9.30304 h 2.28442 v 1.32257 q 0.58615,-0.94683 1.05204,-1.23239 0.46591,-0.30058 1.06708,-0.30058 0.84163,0 1.62314,0.4659 l -0.76649,2.14917 q -0.61619,-0.40579 -1.15724,-0.40579 -0.51099,0 -0.87169,0.28555 -0.36069,0.28556 -0.5711,1.03702 -0.19539,0.73642 -0.19539,3.11102 z m 4.4285,-9.30304 h 2.26939 v 1.26245 q 1.21736,-1.47285 2.90063,-1.47285 0.90174,0 1.54799,0.37573 0.66128,0.3607 1.0821,1.09712 0.6162,-0.73642 1.32256,-1.09712 0.7214,-0.37573 1.51795,-0.37573 1.02198,0 1.72835,0.42081 0.72139,0.40579 1.06707,1.21737 0.25549,0.60116 0.25549,1.92373 v 5.95153 h -2.46478 v -5.32031 q 0,-1.38268 -0.25549,-1.78847 -0.33064,-0.52602 -1.05204,-0.52602 -0.51099,0 -0.9769,0.31561 -0.45087,0.31562 -0.64624,0.93181 -0.19539,0.60116 -0.19539,1.92372 v 4.46366 h -2.46478 v -5.09488 q 0,-1.36764 -0.13525,-1.7584 -0.13527,-0.39076 -0.40579,-0.58614 -0.27053,-0.19538 -0.75146,-0.19538 -0.57111,0 -1.02198,0.31561 -0.45088,0.30058 -0.66128,0.88672 -0.19538,0.57111 -0.19538,1.9087 v 4.52377 h -2.46477 z m 17.9847,2.84052 -2.23934,-0.4058 q 0.39076,-1.35262 1.30753,-1.99887 0.91678,-0.64625 2.7353,-0.64625 1.63818,0 2.44975,0.39075 0.81158,0.39076 1.12718,0.99193 0.33065,0.60116 0.33065,2.19425 l -0.015,2.88559 q 0,1.21737 0.1052,1.8035 0.12023,0.58614 0.45087,1.24742 h -2.43474 q -0.10519,-0.24046 -0.24046,-0.7214 -0.0601,-0.22544 -0.0901,-0.30058 -0.63122,0.61619 -1.35262,0.93181 -0.70636,0.30058 -1.53297,0.30058 -1.42776,0 -2.25437,-0.78152 -0.8266,-0.78151 -0.8266,-1.96882 0,-0.79654 0.37572,-1.41273 0.37574,-0.61619 1.05204,-0.93181 0.67632,-0.33064 1.95379,-0.58613 1.72836,-0.31562 2.38964,-0.60117 v -0.24046 q 0,-0.7214 -0.34568,-1.02198 -0.34566,-0.30059 -1.32256,-0.30059 -0.66128,0 -1.03701,0.27053 -0.36069,0.25549 -0.58614,0.90175 z m 3.29138,1.99886 q -0.46591,0.1503 -1.50291,0.37574 -1.02198,0.21041 -1.3376,0.42081 -0.48093,0.34567 -0.48093,0.87169 0,0.51099 0.39075,0.90175 0.39076,0.37572 0.9769,0.37572 0.67631,0 1.27747,-0.45087 0.45088,-0.33064 0.58615,-0.81157 0.0901,-0.31561 0.0901,-1.20233 z m 13.31651,4.46366 h -2.46478 v -4.7492 q 0,-1.50292 -0.16532,-1.93877 -0.15029,-0.45087 -0.51099,-0.69134 -0.34567,-0.25549 -0.84163,-0.25549 -0.64625,0 -1.15724,0.3607 -0.51099,0.34567 -0.70637,0.93181 -0.18035,0.57111 -0.18035,2.13413 v 4.20816 h -2.44975 v -9.30304 h 2.28443 v 1.36766 q 1.21736,-1.57806 3.06594,-1.57806 0.81158,0 1.48788,0.30058 0.67632,0.28556 1.02198,0.75146 0.34568,0.45087 0.48094,1.03701 0.13526,0.57111 0.13526,1.63817 z m 10.61568,-6.5527 -2.43472,0.43584 q -0.12024,-0.7214 -0.55609,-1.0821 -0.43584,-0.37572 -1.12718,-0.37572 -0.91678,0 -1.47285,0.63122 -0.54105,0.63123 -0.54105,2.11911 0,1.66823 0.55607,2.34454 0.55609,0.67632 1.48789,0.67632 0.70637,0 1.15724,-0.39076 0.45088,-0.40579 0.63122,-1.36766 l 2.4197,0.40579 q -0.37573,1.66823 -1.45783,2.5249 -1.06706,0.84163 -2.85554,0.84163 -2.04396,0 -3.26131,-1.27748 -1.20233,-1.29251 -1.20233,-3.57693 0,-2.29946 1.21735,-3.57694 1.21737,-1.2925 3.29139,-1.2925 1.69828,0 2.69021,0.73643 1.00695,0.7214 1.45783,2.22431 z m 7.24474,3.59196 2.44974,0.40579 q -0.46589,1.35262 -1.48788,2.05899 -1.02198,0.70637 -2.55495,0.70637 -2.41969,0 -3.59196,-1.59309 -0.91678,-1.26245 -0.91678,-3.20121 0,-2.31448 1.20233,-3.62201 1.21736,-1.30754 3.06595,-1.30754 2.07402,0 3.27635,1.36765 1.20233,1.36765 1.14221,4.20816 h -6.16194 q 0.03,1.09712 0.58613,1.71332 0.57111,0.60117 1.42777,0.60117 0.57111,0 0.96186,-0.31562 0.40579,-0.31561 0.60117,-1.02198 z m 0.15029,-2.49484 q -0.03,-1.06706 -0.55608,-1.62314 -0.52602,-0.55608 -1.27747,-0.55608 -0.81158,0 -1.3376,0.58613 -0.52601,0.58615 -0.51099,1.59309 z m 9.41992,5.45558 v -12.84991 h 3.87752 l 2.32951,8.76199 2.29946,-8.76199 h 3.89254 v 12.84991 h -2.40466 v -10.11461 l -2.55495,10.11461 h -2.49484 l -2.53991,-10.11461 v 10.11461 z m 20.34357,-2.96074 2.44975,0.40579 q -0.4659,1.35262 -1.48788,2.05899 -1.02199,0.70637 -2.55496,0.70637 -2.41968,0 -3.59195,-1.59309 -0.91679,-1.26245 -0.91679,-3.20121 0,-2.31448 1.20233,-3.62201 1.21737,-1.30754 3.06595,-1.30754 2.07402,0 3.27635,1.36765 1.20233,1.36765 1.14221,4.20816 h -6.16194 q 0.03,1.09712 0.58614,1.71332 0.57111,0.60117 1.42776,0.60117 0.57111,0 0.96187,-0.31562 0.40579,-0.31561 0.60116,-1.02198 z m 0.15029,-2.49484 q -0.03,-1.06706 -0.55607,-1.62314 -0.52602,-0.55608 -1.27748,-0.55608 -0.81157,0 -1.33759,0.58613 -0.52602,0.58615 -0.51099,1.59309 z m 8.7176,-3.84746 v 1.95379 h -1.68326 v 3.75728 q 0,1.14222 0.0451,1.3376 0.0451,0.18035 0.21041,0.30058 0.18035,0.12024 0.42081,0.12024 0.34567,0 0.99193,-0.24047 l 0.2104,1.92373 q -0.85666,0.3607 -1.93876,0.3607 -0.67631,0 -1.21735,-0.22544 -0.52603,-0.22543 -0.78152,-0.57111 -0.24046,-0.3607 -0.33064,-0.96186 -0.0901,-0.43584 -0.0901,-1.74338 v -4.05787 h -1.12719 v -1.95379 h 1.12719 v -1.84857 l 2.47981,-1.4428 v 3.29137 z m 4.06709,9.30304 h -2.46478 v -9.30304 h 2.28443 v 1.32257 q 0.58613,-0.94683 1.05204,-1.23239 0.4659,-0.30058 1.06706,-0.30058 0.84164,0 1.62315,0.4659 l -0.76648,2.14917 q -0.6162,-0.40579 -1.15725,-0.40579 -0.51099,0 -0.87169,0.28555 -0.3607,0.28556 -0.57111,1.03702 -0.19537,0.73642 -0.19537,3.11102 z m 4.62381,-10.56548 v -2.28443 h 2.46478 v 2.28443 z m 0,10.56548 v -9.30304 h 2.46478 v 9.30304 z m 13.10134,-6.5527 -2.43472,0.43584 q -0.12023,-0.7214 -0.55607,-1.0821 -0.43585,-0.37572 -1.12719,-0.37572 -0.91677,0 -1.47286,0.63122 -0.54104,0.63123 -0.54104,2.11911 0,1.66823 0.55608,2.34454 0.55607,0.67632 1.48788,0.67632 0.70637,0 1.15725,-0.39076 0.45087,-0.40579 0.63122,-1.36766 l 2.41968,0.40579 q -0.37572,1.66823 -1.45782,2.5249 -1.06707,0.84163 -2.85553,0.84163 -2.04396,0 -3.26133,-1.27748 -1.20233,-1.29251 -1.20233,-3.57693 0,-2.29946 1.21737,-3.57694 1.21735,-1.2925 3.29137,-1.2925 1.6983,0 2.69022,0.73643 1.00695,0.7214 1.45782,2.22431 z"
     fill-rule="nonzero"
     id="path8"
     style="stroke-width:0.961864"
     clip-path="url(#clipPath102)"
     transform="translate(2)" />
  <path
     fill="#ffffff"
     d="m 410.94266,114.68677 h 138.11466 v 76.1009 H 410.94266 Z"
     fill-rule="evenodd"
     id="path9"
     style="stroke-width:0.961864"
     clip-path="url(#clipPath101)"
     transform="translate(4)" />
  <path
     stroke="#000000"
     stroke-width="0.961864"
     stroke-linejoin="round"
     stroke-linecap="butt"
     d="m 410.94266,114.68677 h 138.11466 v 76.1009 H 410.94266 Z"
     fill-rule="evenodd"
     id="path10"
     clip-path="url(#clipPath100)"
     transform="translate(4)" />
  <path
     fill="#000000"
     d="m 457.76252,159.39332 v -10.67069 h -3.80237 v -2.17922 h 10.20478 v 2.17922 h -3.80237 v 10.67069 z m 9.42967,0 h -2.46478 v -9.30304 h 2.28443 v 1.32256 q 0.58613,-0.94683 1.05204,-1.23239 0.4659,-0.30058 1.06706,-0.30058 0.84163,0 1.62315,0.46591 l -0.76648,2.14916 q -0.6162,-0.40578 -1.15725,-0.40578 -0.51099,0 -0.87169,0.28555 -0.3607,0.28556 -0.57111,1.03701 -0.19537,0.73643 -0.19537,3.11103 z m 6.45739,-6.46253 -2.23935,-0.40579 q 0.39076,-1.35262 1.30754,-1.99887 0.91677,-0.64626 2.7353,-0.64626 1.63817,0 2.44975,0.39076 0.81157,0.39076 1.12719,0.99192 0.33064,0.60117 0.33064,2.19426 l -0.015,2.88559 q 0,1.21736 0.10521,1.80349 0.12024,0.58615 0.45088,1.24743 h -2.43472 q -0.10521,-0.24047 -0.24047,-0.7214 -0.0601,-0.22544 -0.0901,-0.30058 -0.63122,0.61619 -1.35262,0.9318 -0.70637,0.30059 -1.53297,0.30059 -1.42777,0 -2.25437,-0.78152 -0.82661,-0.78151 -0.82661,-1.96882 0,-0.79654 0.37574,-1.41274 0.37572,-0.61619 1.05204,-0.93181 0.6763,-0.33064 1.95378,-0.58613 1.72835,-0.31561 2.38963,-0.60116 v -0.24047 q 0,-0.7214 -0.34566,-1.02198 -0.34568,-0.30058 -1.32257,-0.30058 -0.66128,0 -1.03701,0.27052 -0.3607,0.25549 -0.58613,0.90175 z m 3.29137,1.99887 q -0.46589,0.15029 -1.50291,0.37573 -1.02198,0.21041 -1.33759,0.42082 -0.48093,0.34566 -0.48093,0.87169 0,0.51099 0.39076,0.90175 0.39076,0.37572 0.97689,0.37572 0.67631,0 1.27748,-0.45087 0.45087,-0.33064 0.58613,-0.81158 0.0901,-0.3156 0.0901,-1.20233 z m 4.85509,-6.10183 v -2.28442 h 2.46478 v 2.28442 z m 0,10.56549 v -9.30304 h 2.46478 v 9.30304 z m 9.25393,-9.30304 v 1.95379 h -1.68327 v 3.75728 q 0,1.14221 0.0451,1.3376 0.0451,0.18035 0.21041,0.30058 0.18035,0.12023 0.42082,0.12023 0.34567,0 0.99192,-0.24046 l 0.21041,1.92373 q -0.85666,0.3607 -1.93875,0.3607 -0.67632,0 -1.21737,-0.22545 -0.52601,-0.22543 -0.78151,-0.5711 -0.24047,-0.3607 -0.33065,-0.96187 -0.0901,-0.43584 -0.0901,-1.74338 v -4.05786 h -1.12718 v -1.95379 h 1.12718 v -1.84858 l 2.47981,-1.44279 v 3.29137 z m 12.46428,9.30304 h -2.46478 v -9.27298 q -1.35262,1.26245 -3.18618,1.86361 v -2.23934 q 0.9769,-0.31561 2.10408,-1.1873 1.12719,-0.88672 1.54801,-2.05899 h 1.99887 z"
     fill-rule="nonzero"
     id="path11"
     style="stroke-width:0.961864"
     clip-path="url(#clipPath99)"
     transform="translate(4)" />
  <path
     fill="#ffffff"
     d="m 410.94266,214.4935 h 138.11466 v 76.1009 H 410.94266 Z"
     fill-rule="evenodd"
     id="path12"
     style="stroke-width:0.961864"
     clip-path="url(#clipPath98)"
     transform="translate(4)" />
  <path
     stroke="#000000"
     stroke-width="0.961864"
     stroke-linejoin="round"
     stroke-linecap="butt"
     d="m 410.94266,214.4935 h 138.11466 v 76.1009 H 410.94266 Z"
     fill-rule="evenodd"
     id="path13"
     clip-path="url(#clipPath97)"
     transform="translate(4)" />
  <path
     fill="#000000"
     d="m 457.76252,259.20004 v -10.67068 h -3.80237 v -2.17923 h 10.20478 v 2.17923 h -3.80237 v 10.67068 z m 9.42967,0 h -2.46478 v -9.30303 h 2.28443 v 1.32256 q 0.58613,-0.94683 1.05204,-1.23239 0.4659,-0.30058 1.06706,-0.30058 0.84163,0 1.62315,0.46591 l -0.76648,2.14916 q -0.6162,-0.40579 -1.15725,-0.40579 -0.51099,0 -0.87169,0.28555 -0.3607,0.28556 -0.57111,1.03702 -0.19537,0.73642 -0.19537,3.11102 z m 6.45739,-6.46252 -2.23935,-0.4058 q 0.39076,-1.35262 1.30754,-1.99886 0.91677,-0.64626 2.7353,-0.64626 1.63817,0 2.44975,0.39076 0.81157,0.39075 1.12719,0.99192 0.33064,0.60116 0.33064,2.19425 l -0.015,2.88559 q 0,1.21737 0.10521,1.8035 0.12024,0.58614 0.45088,1.24742 h -2.43472 q -0.10521,-0.24046 -0.24047,-0.7214 -0.0601,-0.22544 -0.0901,-0.30058 -0.63122,0.61619 -1.35262,0.93181 -0.70637,0.30058 -1.53297,0.30058 -1.42777,0 -2.25437,-0.78151 -0.82661,-0.78152 -0.82661,-1.96883 0,-0.79653 0.37574,-1.41273 0.37572,-0.61619 1.05204,-0.93181 0.6763,-0.33064 1.95378,-0.58613 1.72835,-0.31562 2.38963,-0.60117 v -0.24046 q 0,-0.7214 -0.34566,-1.02198 -0.34568,-0.30059 -1.32257,-0.30059 -0.66128,0 -1.03701,0.27053 -0.3607,0.25549 -0.58613,0.90175 z m 3.29137,1.99887 q -0.46589,0.15029 -1.50291,0.37573 -1.02198,0.21041 -1.33759,0.42081 -0.48093,0.34567 -0.48093,0.87169 0,0.51099 0.39076,0.90175 0.39076,0.37573 0.97689,0.37573 0.67631,0 1.27748,-0.45088 0.45087,-0.33064 0.58613,-0.81157 0.0901,-0.31561 0.0901,-1.20233 z m 4.85509,-6.10183 v -2.28443 h 2.46478 v 2.28443 z m 0,10.56548 v -9.30303 h 2.46478 v 9.30303 z m 9.25393,-9.30303 v 1.95378 h -1.68327 v 3.75729 q 0,1.14221 0.0451,1.33759 0.0451,0.18035 0.21041,0.30059 0.18035,0.12023 0.42082,0.12023 0.34567,0 0.99192,-0.24047 l 0.21041,1.92373 q -0.85666,0.3607 -1.93875,0.3607 -0.67632,0 -1.21737,-0.22544 -0.52601,-0.22543 -0.78151,-0.57111 -0.24047,-0.3607 -0.33065,-0.96186 -0.0901,-0.43584 -0.0901,-1.74338 v -4.05787 h -1.12718 v -1.95378 h 1.12718 v -1.84858 l 2.47981,-1.4428 v 3.29138 z m 14.47818,7.0186 v 2.28443 h -8.62672 q 0.13527,-1.2925 0.82661,-2.44975 0.70636,-1.17227 2.78038,-3.08097 1.66824,-1.56303 2.04396,-2.10408 0.51099,-0.76649 0.51099,-1.51794 0,-0.81158 -0.45087,-1.24742 -0.43584,-0.45087 -1.21736,-0.45087 -0.76649,0 -1.23238,0.4659 -0.45088,0.45087 -0.52603,1.53297 l -2.44974,-0.24047 q 0.22543,-2.02892 1.36764,-2.91565 1.15725,-0.88671 2.90063,-0.88671 1.89367,0 2.97577,1.02198 1.09712,1.02198 1.09712,2.55495 0,0.85666 -0.31561,1.65321 -0.30058,0.78151 -0.97689,1.63817 -0.45088,0.5711 -1.62315,1.63818 -1.15724,1.06706 -1.47286,1.42776 -0.30058,0.34567 -0.49595,0.67631 z"
     fill-rule="nonzero"
     id="path14"
     style="stroke-width:0.961864"
     clip-path="url(#clipPath96)"
     transform="translate(4)" />
  <path
     fill="#ffffff"
     d="m 410.94266,314.30016 h 138.11466 v 76.10088 H 410.94266 Z"
     fill-rule="evenodd"
     id="path15"
     style="stroke-width:0.961864"
     clip-path="url(#clipPath95)"
     transform="translate(4)" />
  <path
     stroke="#000000"
     stroke-width="0.961864"
     stroke-linejoin="round"
     stroke-linecap="butt"
     d="m 410.94266,314.30016 h 138.11466 v 76.10088 H 410.94266 Z"
     fill-rule="evenodd"
     id="path16"
     clip-path="url(#clipPath94)"
     transform="translate(4)" />
  <path
     fill="#000000"
     d="M 457.76252,359.00668 V 348.336 h -3.80237 v -2.17923 h 10.20478 v 2.17923 h -3.80237 v 10.67068 z m 9.42967,0 h -2.46478 v -9.30304 h 2.28443 v 1.32257 q 0.58613,-0.94683 1.05204,-1.23239 0.4659,-0.30058 1.06706,-0.30058 0.84163,0 1.62315,0.4659 l -0.76648,2.14917 q -0.6162,-0.40579 -1.15725,-0.40579 -0.51099,0 -0.87169,0.28555 -0.3607,0.28556 -0.57111,1.03702 -0.19537,0.73642 -0.19537,3.11102 z m 6.45739,-6.46252 -2.23935,-0.4058 q 0.39076,-1.35262 1.30754,-1.99887 0.91677,-0.64625 2.7353,-0.64625 1.63817,0 2.44975,0.39075 0.81157,0.39076 1.12719,0.99193 0.33064,0.60116 0.33064,2.19425 l -0.015,2.88559 q 0,1.21737 0.10521,1.8035 0.12024,0.58614 0.45088,1.24742 h -2.43472 q -0.10521,-0.24046 -0.24047,-0.7214 -0.0601,-0.22544 -0.0901,-0.30058 -0.63122,0.61619 -1.35262,0.93181 -0.70637,0.30058 -1.53297,0.30058 -1.42777,0 -2.25437,-0.78152 -0.82661,-0.78151 -0.82661,-1.96882 0,-0.79654 0.37574,-1.41273 0.37572,-0.61619 1.05204,-0.93181 0.6763,-0.33064 1.95378,-0.58613 1.72835,-0.31562 2.38963,-0.60117 v -0.24046 q 0,-0.7214 -0.34566,-1.02198 -0.34568,-0.30059 -1.32257,-0.30059 -0.66128,0 -1.03701,0.27053 -0.3607,0.25549 -0.58613,0.90175 z m 3.29137,1.99886 q -0.46589,0.1503 -1.50291,0.37574 -1.02198,0.21041 -1.33759,0.42081 -0.48093,0.34567 -0.48093,0.87169 0,0.51099 0.39076,0.90175 0.39076,0.37572 0.97689,0.37572 0.67631,0 1.27748,-0.45087 0.45087,-0.33064 0.58613,-0.81157 0.0901,-0.31561 0.0901,-1.20233 z m 4.85509,-6.10182 v -2.28443 h 2.46478 v 2.28443 z m 0,10.56548 v -9.30304 h 2.46478 v 9.30304 z m 9.25393,-9.30304 v 1.95379 h -1.68327 v 3.75728 q 0,1.14222 0.0451,1.3376 0.0451,0.18035 0.21041,0.30058 0.18035,0.12024 0.42082,0.12024 0.34567,0 0.99192,-0.24047 l 0.21041,1.92373 q -0.85666,0.3607 -1.93875,0.3607 -0.67632,0 -1.21737,-0.22544 -0.52601,-0.22543 -0.78151,-0.57111 -0.24047,-0.3607 -0.33065,-0.96186 -0.0901,-0.43584 -0.0901,-1.74338 v -4.05787 h -1.12718 v -1.95379 h 1.12718 v -1.84857 l 2.47981,-1.4428 v 3.29137 z m 6.0769,5.89142 2.3746,-0.28554 q 0.12024,0.91677 0.61619,1.3977 0.51099,0.48093 1.21737,0.48093 0.75145,0 1.27747,-0.57111 0.52602,-0.58613 0.52602,-1.57805 0,-0.91678 -0.51099,-1.45783 -0.49596,-0.55607 -1.20233,-0.55607 -0.48093,0 -1.14221,0.19537 l 0.27052,-2.0139 q 1.00695,0.03 1.53297,-0.42082 0.52602,-0.4659 0.52602,-1.23239 0,-0.64624 -0.39076,-1.037 -0.37572,-0.39076 -1.02198,-0.39076 -0.63122,0 -1.0821,0.45087 -0.43584,0.43584 -0.54105,1.27748 l -2.26939,-0.39076 q 0.24047,-1.15724 0.70636,-1.84858 0.48094,-0.70637 1.3376,-1.09713 0.85666,-0.40578 1.92373,-0.40578 1.8035,0 2.90062,1.15724 0.90175,0.94684 0.90175,2.13413 0,1.6983 -1.84858,2.70525 1.11215,0.22544 1.77344,1.05203 0.66128,0.82661 0.66128,1.98385 0,1.6983 -1.24743,2.90063 -1.23238,1.18729 -3.06594,1.18729 -1.74338,0 -2.90062,-1.00694 -1.14221,-1.00696 -1.32256,-2.63011 z"
     fill-rule="nonzero"
     id="path17"
     style="stroke-width:0.961864"
     clip-path="url(#clipPath93)"
     transform="translate(4)" />
  <path
     fill="#000000"
     fill-opacity="0"
     d="M 233.31081,352.3506 410.93004,152.73723"
     fill-rule="evenodd"
     id="path18"
     style="stroke-width:0.961864"
     clip-path="url(#clipPath92)" />
  <path
     fill="#000000"
     fill-opacity="0"
     d="M 233.31081,352.3506 410.93004,252.55906"
     fill-rule="evenodd"
     id="path21"
     style="stroke-width:0.961864"
     clip-path="url(#clipPath89)" />
  <path
     fill="#000000"
     fill-opacity="0"
     d="M 233.31081,352.3506 H 410.93004"
     fill-rule="evenodd"
     id="path24"
     style="stroke-width:0.961864"
     clip-path="url(#clipPath86)" />
  <path
     fill="#000000"
     fill-opacity="0"
     d="M 549.05734,352.3506 H 726.67655"
     fill-rule="evenodd"
     id="path27"
     style="stroke-width:0.961864"
     clip-path="url(#clipPath83)" />
  <path
     stroke="#666666"
     stroke-width="0.961864"
     stroke-linejoin="round"
     stroke-linecap="butt"
     stroke-dasharray="4, 3"
     d="m 405.42431,154.42666 -0.0721,0.0432 c -16.14641,10.01447 -25.65833,29.44919 -26.6733,48.17833 1.30827,19.13917 10.52542,37.69639 26.72075,48.17832 l 0.0833,0.0497"
     fill-rule="evenodd"
     id="path37"
     sodipodi:nodetypes="ccscc"
     clip-path="url(#clipPath73)"
     style="opacity:0.75265;fill:#000000;fill-opacity:0;stroke:#ff5a00;stroke-width:1.462;stroke-dasharray:6.07986, 4.5599;stroke-dashoffset:0;stroke-opacity:1"
     transform="matrix(1.0007923,0,0,0.99629791,-0.31048748,5.6658838)" />
  <path
     stroke="#666666"
     stroke-width="0.961864"
     stroke-linejoin="round"
     stroke-linecap="butt"
     stroke-dasharray="4, 3"
     d="m 405.42419,254.23295 -0.072,0.0431 c -9.64374,5.90851 -27.16073,29.34062 -27.15422,50.83562 0.008,25.26499 19.72623,40.92277 27.20168,45.49176 l 0.0832,0.0496"
     fill-rule="evenodd"
     id="path41"
     sodipodi:nodetypes="ccscc"
     clip-path="url(#clipPath69)"
     style="opacity:0.75265;fill:#000000;fill-opacity:0;stroke:#ff5a00;stroke-width:1.462;stroke-dasharray:6.07986, 4.5599;stroke-dashoffset:0;stroke-opacity:1"
     transform="matrix(1,0,0,1.0337061,0,-8.5692035)" />
  <path
     stroke="#000000"
     stroke-width="0.961864"
     stroke-linejoin="round"
     stroke-linecap="butt"
     d="M 549.05734,352.3506 H 720.90537"
     fill-rule="evenodd"
     id="path28"
     clip-path="url(#clipPath82)"
     style="marker-end:url(#Triangle)"
     transform="matrix(0.97375593,0,0,1,14.409502,0)" />
  <path
     fill="#000000"
     fill-opacity="0"
     d="m 549.05734,252.54394 177.61921,99.79154"
     fill-rule="evenodd"
     id="path30"
     style="stroke-width:0.961864"
     clip-path="url(#clipPath80)" />
  <path
     stroke="#000000"
     stroke-width="0.961864"
     stroke-linejoin="round"
     stroke-linecap="butt"
     d="m 549.05734,252.54394 172.58774,96.96474"
     fill-rule="evenodd"
     id="path31"
     clip-path="url(#clipPath79)"
     style="marker-end:url(#Triangle)"
     transform="matrix(0.97541791,0,0,0.85879662,13.343504,35.745098)" />
  <path
     fill="#000000"
     fill-opacity="0"
     d="M 549.05734,152.73722 726.67655,352.35059"
     fill-rule="evenodd"
     id="path33"
     style="stroke-width:0.961864"
     clip-path="url(#clipPath77)" />
  <path
     stroke="#000000"
     stroke-width="0.961864"
     stroke-linejoin="round"
     stroke-linecap="butt"
     d="M 549.05734,152.73722 722.84019,348.03914"
     fill-rule="evenodd"
     id="path34"
     clip-path="url(#clipPath76)"
     style="marker-end:url(#Triangle)"
     transform="matrix(0.97684301,0,0,0.84996954,12.536879,23.033093)" />
  <path
     fill="#000000"
     fill-opacity="0"
     d="m 410.94266,152.73722 c -12.02331,0 -24.05418,24.95545 -24.04661,49.91091 0.008,24.95547 12.05359,49.91092 24.10722,49.91092"
     fill-rule="evenodd"
     id="path36"
     style="stroke-width:0.961864"
     clip-path="url(#clipPath74)" />
  <path
     fill="#000000"
     fill-opacity="0"
     d="m 410.94266,252.54394 c -12.02331,0 -24.05418,24.94789 -24.04661,49.89576 0.008,24.94789 12.05359,49.89578 24.10722,49.89578"
     fill-rule="evenodd"
     id="path40"
     style="stroke-width:0.961864"
     clip-path="url(#clipPath70)" />
  <path
     fill="#ffffff"
     d="m 410.94266,510.6972 h 138.11466 v 76.10089 H 410.94266 Z"
     fill-rule="evenodd"
     id="path44"
     style="stroke-width:0.961864"
     clip-path="url(#clipPath66)"
     transform="translate(4)" />
  <path
     stroke="#000000"
     stroke-width="0.961864"
     stroke-linejoin="round"
     stroke-linecap="butt"
     d="m 410.94266,510.6972 h 138.11466 v 76.10089 H 410.94266 Z"
     fill-rule="evenodd"
     id="path45"
     clip-path="url(#clipPath65)"
     transform="translate(4)" />
  <path
     fill="#000000"
     d="m 456.27296,555.40373 v -10.67068 h -3.80237 v -2.17923 h 10.20478 v 2.17923 H 458.873 v 10.67068 z m 9.42967,0 h -2.46478 v -9.30303 h 2.28443 v 1.32256 q 0.58613,-0.94683 1.05204,-1.23239 0.46589,-0.30058 1.06706,-0.30058 0.84163,0 1.62315,0.46591 l -0.76649,2.14916 q -0.61619,-0.40578 -1.15724,-0.40578 -0.51099,0 -0.87169,0.28555 -0.3607,0.28555 -0.57111,1.03701 -0.19537,0.73642 -0.19537,3.11103 z m 6.45739,-6.46252 -2.23935,-0.40579 q 0.39076,-1.35262 1.30754,-1.99887 0.91677,-0.64626 2.7353,-0.64626 1.63817,0 2.44975,0.39076 0.81157,0.39075 1.12719,0.99192 0.33064,0.60117 0.33064,2.19425 l -0.015,2.8856 q 0,1.21736 0.10521,1.80349 0.12023,0.58614 0.45087,1.24742 h -2.43472 q -0.1052,-0.24046 -0.24046,-0.72139 -0.0601,-0.22545 -0.0901,-0.30059 -0.63122,0.61619 -1.35262,0.93181 -0.70637,0.30058 -1.53297,0.30058 -1.42777,0 -2.25437,-0.78151 -0.82661,-0.78152 -0.82661,-1.96882 0,-0.79654 0.37573,-1.41274 0.37573,-0.61619 1.05204,-0.93181 0.67631,-0.33064 1.95379,-0.58613 1.72835,-0.31562 2.38963,-0.60116 v -0.24047 q 0,-0.7214 -0.34567,-1.02198 -0.34567,-0.30058 -1.32256,-0.30058 -0.66128,0 -1.03702,0.27052 -0.36069,0.25549 -0.58613,0.90175 z m 3.29137,1.99887 q -0.4659,0.15029 -1.50291,0.37573 -1.02198,0.21041 -1.33759,0.42082 -0.48093,0.34566 -0.48093,0.87169 0,0.51099 0.39076,0.90174 0.39075,0.37573 0.97688,0.37573 0.67632,0 1.27748,-0.45088 0.45088,-0.33064 0.58614,-0.81157 0.0901,-0.31561 0.0901,-1.20233 z m 4.85509,-6.10183 v -2.28443 h 2.46478 v 2.28443 z m 0,10.56548 v -9.30303 h 2.46478 v 9.30303 z m 9.25392,-9.30303 v 1.95378 h -1.68326 v 3.75729 q 0,1.14221 0.0451,1.3376 0.0451,0.18034 0.21041,0.30058 0.18035,0.12023 0.42082,0.12023 0.34567,0 0.99192,-0.24047 l 0.21041,1.92373 q -0.85666,0.3607 -1.93876,0.3607 -0.67631,0 -1.21736,-0.22544 -0.52602,-0.22543 -0.78152,-0.57111 -0.24046,-0.3607 -0.33064,-0.96186 -0.0901,-0.43584 -0.0901,-1.74338 v -4.05787 h -1.12718 v -1.95378 h 1.12718 v -1.84858 l 2.47981,-1.4428 v 3.29138 z"
     fill-rule="nonzero"
     id="path46"
     style="stroke-width:0.961864"
     clip-path="url(#clipPath64)"
     transform="translate(4)" />
  <path
     fill="#000000"
     d="m 505.96233,555.40373 h -2.46478 l -3.4567,-8.62672 -1.81853,8.62672 h -2.44974 l 2.67518,-12.84991 h 2.46478 l 3.48676,8.59667 1.78846,-8.59667 h 2.46478 z"
     fill-rule="nonzero"
     id="path47"
     style="stroke-width:0.961864"
     clip-path="url(#clipPath63)"
     transform="translate(4)" />
  <path
     fill="#000000"
     fill-opacity="0"
     d="M 233.31081,352.3506 410.93004,548.75273"
     fill-rule="evenodd"
     id="path48"
     style="stroke-width:0.961864"
     clip-path="url(#clipPath62)" />
  <path
     fill="#000000"
     fill-opacity="0"
     d="M 549.05734,548.74767 726.67655,352.34554"
     fill-rule="evenodd"
     id="path51"
     style="stroke-width:0.961864"
     clip-path="url(#clipPath59)" />
  <path
     stroke="#000000"
     stroke-width="0.961864"
     stroke-linejoin="round"
     stroke-linecap="butt"
     d="M 549.05734,548.74767 722.80555,356.62591"
     fill-rule="evenodd"
     id="path52"
     clip-path="url(#clipPath58)"
     style="marker-end:url(#Triangle)"
     transform="matrix(0.97628209,0,0,0.93221829,12.956546,37.160302)" />
  <path
     fill="#000000"
     fill-opacity="0"
     d="m 424.92126,417.90631 h 110.1827 v 65.28561 h -110.1827 z"
     fill-rule="evenodd"
     id="path54"
     style="stroke-width:0.961864"
     clip-path="url(#clipPath56)"
     transform="translate(4)" />
  <path
     fill="#000000"
     d="m 490.20237,464.39996 v -5.27523 h 5.29025 v 5.27523 z m -12.81984,0 v -5.27523 h 5.27522 v 5.27523 z m -12.83488,0 v -5.27523 h 5.29025 v 5.27523 z"
     fill-rule="nonzero"
     id="path55"
     style="stroke-width:0.961864"
     clip-path="url(#clipPath1)"
     transform="translate(4)" />
  <path
     stroke="#000000"
     stroke-width="0.961864"
     stroke-linejoin="round"
     stroke-linecap="butt"
     d="M 233.31081,352.3506 407.09365,157.04868"
     fill-rule="evenodd"
     id="path19"
     clip-path="url(#clipPath91)"
     style="stroke-width:0.962;stroke-dasharray:none;marker-end:url(#Triangle)" />
  <path
     stroke="#000000"
     stroke-width="0.961864"
     stroke-linejoin="round"
     stroke-linecap="butt"
     d="M 233.31081,352.3506 405.89857,255.38588"
     fill-rule="evenodd"
     id="path22"
     clip-path="url(#clipPath88)"
     style="stroke-width:0.962;stroke-dasharray:none;marker-end:url(#Triangle)" />
  <path
     stroke="#000000"
     stroke-width="0.961864"
     stroke-linejoin="round"
     stroke-linecap="butt"
     d="M 233.31081,352.3506 H 405.15885"
     fill-rule="evenodd"
     id="path25"
     clip-path="url(#clipPath85)"
     style="stroke-width:0.962;stroke-dasharray:none;marker-end:url(#Triangle)" />
  <path
     stroke="#000000"
     stroke-width="0.961864"
     stroke-linejoin="round"
     stroke-linecap="butt"
     d="m 233.31081,352.3506 173.7482,192.1217"
     fill-rule="evenodd"
     id="path49"
     clip-path="url(#clipPath61)"
     style="stroke-width:0.962;stroke-dasharray:none;marker-end:url(#Triangle)" />
  <text
     xml:space="preserve"
     transform="matrix(1.0271493,0,0,1.0271493,-13.031677,11.112399)"
     id="text55"
     style="font-weight:bold;font-family:'Helvetica Neue';-inkscape-font-specification:'Helvetica Neue Bold';white-space:pre;shape-inside:url(#rect55);display:inline;fill:none;fill-opacity:0.227979;stroke:#ff0000;stroke-width:1.33417;stroke-linecap:square;stroke-dasharray:1.33417, 10.6734" />
  <text
     xml:space="preserve"
     id="text56"
     style="font-weight:bold;font-size:8.53509px;font-family:'Helvetica Neue';-inkscape-font-specification:'Helvetica Neue Bold';white-space:pre;shape-inside:url(#rect56);display:inline;fill:#000000;fill-opacity:1;stroke:none;stroke-width:1.33417;stroke-linecap:square;stroke-dasharray:1.33417, 10.6734"
     transform="matrix(4.6865368,0,0,4.6865368,-212.81281,-187.16485)"><tspan
       x="57.677734"
       y="64.194674"
       id="tspan2">a</tspan></text>
</svg>
